<?xml version="1.0" encoding="UTF-8" standalone="no"?>
<svg
   width="292.66544"
   height="340.5661"
   version="1.1"
   id="svg286"
   xmlns="http://www.w3.org/2000/svg"
   xmlns:svg="http://www.w3.org/2000/svg">
  <defs
     id="defs290">
    <clipPath
       id="cp0">
      <path
         id="svg_3"
         d="M 0,380.55553 H 447.22221 V -1e-5 H 0 Z" />
    </clipPath>
    <clipPath
       id="cp1">
      <path
         id="svg_6"
         d="M -1472.2222,1197.2222 H 866.36107 V -456.31943 H -1472.2222 Z" />
    </clipPath>
    <clipPath
       id="cp3">
      <path
         id="svg_175"
         d="M -1472.2222,-456.31944 H 866.36107 V 1197.2222 H -1472.2222 Z" />
    </clipPath>
    <clipPath
       id="cp4">
      <path
         id="svg_179"
         d="M -1472.2222,-456.31944 H 866.36107 V 1197.2222 H -1472.2222 Z" />
    </clipPath>
    <clipPath
       id="cp6">
      <path
         id="svg_186"
         d="M -1472.2222,-456.31944 H 866.36107 V 1197.2222 H -1472.2222 Z" />
    </clipPath>
  </defs>
  <symbol
     id="font_2_2f"
     transform="translate(-85.414472,-24.206139)">
    <path
       id="svg_8"
       d="M 0,0 V 0.71582 H 0.09473 V 0.08447 H 0.44727 V 0 Z" />
  </symbol>
  <symbol
     id="font_2_52"
     transform="translate(-85.414472,-24.206139)">
    <path
       id="svg_9"
       d="m 0,0.271 c 0,0.09602 0.02669,0.16715 0.08008,0.21338 0.04459,0.03841 0.09896,0.05761 0.16308,0.05761 0.07129,0 0.12956,-0.02344 0.17481,-0.07031 0.04525,-0.04655 0.06787,-0.111 0.06787,-0.19336 0,-0.06673 -0.01009,-0.1193 -0.03027,-0.15771 C 0.43571,0.08252 0.40658,0.0529 0.36816,0.03174 0.33008,0.01058 0.28841,0 0.24316,0 0.17057,0 0.11182,0.02327 0.06689,0.06982 0.0223,0.11637 0,0.18343 0,0.271 m 0.09033,0 c 0,-0.06641 0.01449,-0.11621 0.04346,-0.14942 0.02897,-0.03288 0.06543,-0.04931 0.10937,-0.04931 0.04362,0 0.07992,0.0166 0.10889,0.0498 0.02897,0.0332 0.04346,0.08382 0.04346,0.15186 0,0.06412 -0.01465,0.11263 -0.04395,0.1455 C 0.32259,0.45264 0.28646,0.46924 0.24316,0.46924 0.19922,0.46924 0.16276,0.4528 0.13379,0.41992 0.10482,0.38704 0.09033,0.3374 0.09033,0.271 Z" />
  </symbol>
  <symbol
     id="font_2_4a"
     transform="translate(-85.414472,-24.206139)">
    <path
       id="svg_10"
       d="M 0.01758,0.16748 0.10303,0.15479 C 0.10661,0.12842 0.11654,0.10921 0.13281,0.09717 0.15462,0.08089 0.18441,0.07275 0.22217,0.07275 c 0.04069,0 0.0721,0.00814 0.09424,0.02442 C 0.33854,0.11344 0.35352,0.13623 0.36133,0.16553 0.36589,0.18343 0.368,0.22103 0.36768,0.27832 0.32926,0.23307 0.28141,0.21045 0.22412,0.21045 0.15283,0.21045 0.09766,0.23617 0.05859,0.2876 0.01953,0.33903 0,0.40072 0,0.47266 c 0,0.04948 0.00895,0.09505 0.02686,0.13672 0.0179,0.04199 0.04378,0.07438 0.07763,0.09716 0.03418,0.02279 0.07422,0.03418 0.12012,0.03418 0.0612,0 0.11165,-0.02474 0.15137,-0.07422 V 0.729 H 0.45703 V 0.28076 C 0.45703,0.20003 0.44873,0.1429 0.43213,0.10938 0.41585,0.07552 0.38981,0.04883 0.354,0.0293 0.31852,0.00977 0.27474,0 0.22266,0 0.16081,0 0.11084,0.014 0.07275,0.04199 0.03467,0.06966 0.01628,0.11149 0.01758,0.16748 M 0.09033,0.479 c 0,-0.06803 0.01351,-0.11767 0.04053,-0.14892 C 0.15788,0.29883 0.19173,0.2832 0.23242,0.2832 c 0.04037,0 0.07422,0.01547 0.10156,0.04639 C 0.36133,0.36084 0.375,0.40967 0.375,0.47607 0.375,0.53955 0.36084,0.5874 0.33252,0.61963 0.30452,0.65186 0.27067,0.66797 0.23096,0.66797 0.19189,0.66797 0.15869,0.65202 0.13135,0.62012 0.104,0.58854 0.09033,0.5415 0.09033,0.479 Z" />
  </symbol>
  <symbol
     id="font_2_3"
     transform="translate(-85.414472,-24.206139)">
    <path
       id="svg_11"
       d="M 0,0 Z" />
  </symbol>
  <symbol
     id="font_2_36"
     transform="translate(-85.414472,-24.206139)">
    <path
       id="svg_12"
       d="M 0,0.24219 0.08936,0.25 C 0.09359,0.21419 0.10335,0.18473 0.11865,0.16162 0.13428,0.13883 0.15837,0.12028 0.19092,0.10596 c 0.03255,-0.014 0.06917,-0.021 0.10986,-0.021 0.03613,0 0.06804,0.00537 0.0957,0.01611 0.02767,0.01075 0.04818,0.02539 0.06153,0.04395 0.01367,0.01888 0.02051,0.03939 0.02051,0.06152 0,0.02246 -0.00651,0.042 -0.01954,0.0586 C 0.44596,0.28206 0.42448,0.29622 0.39453,0.30762 0.37533,0.3151 0.33285,0.32666 0.26709,0.34229 0.20133,0.35824 0.15527,0.37321 0.12891,0.38721 0.09473,0.40511 0.06917,0.42725 0.05225,0.45361 0.03564,0.48031 0.02734,0.51009 0.02734,0.54297 c 0,0.03613 0.01026,0.06982 0.03077,0.10107 0.0205,0.03158 0.05045,0.0555 0.08984,0.07178 0.03939,0.01628 0.08317,0.02441 0.13135,0.02441 0.05306,0 0.09977,-0.00862 0.14013,-0.02587 0.04069,-0.01693 0.07194,-0.042 0.09375,-0.0752 0.02181,-0.0332 0.03353,-0.0708 0.03516,-0.11279 L 0.45752,0.51953 C 0.45264,0.56478 0.43604,0.59896 0.40771,0.62207 0.37972,0.64518 0.33822,0.65674 0.2832,0.65674 0.22591,0.65674 0.18408,0.64616 0.15771,0.625 0.13167,0.60417 0.11865,0.57894 0.11865,0.54932 0.11865,0.5236 0.12793,0.50244 0.14648,0.48584 0.16471,0.46924 0.21224,0.45215 0.28906,0.43457 0.36621,0.41732 0.41911,0.40218 0.44775,0.38916 0.48942,0.36995 0.52018,0.34554 0.54004,0.31592 0.5599,0.28662 0.56982,0.25277 0.56982,0.21436 0.56982,0.17627 0.55892,0.1403 0.53711,0.10645 0.5153,0.07292 0.48389,0.04671 0.44287,0.02783 0.40218,0.00928 0.35628,0 0.30518,0 0.2404,0 0.18604,0.00944 0.14209,0.02832 0.09847,0.0472 0.06413,0.07552 0.03906,0.11328 0.01432,0.15137 0.0013,0.19434 0,0.24219 Z" />
  </symbol>
  <symbol
     id="font_2_48"
     transform="translate(-85.414472,-24.206139)">
    <path
       id="svg_13"
       d="M 0.38428,0.17871 0.4751,0.16748 C 0.46077,0.11442 0.43424,0.07324 0.39551,0.04395 0.35677,0.01465 0.30729,0 0.24707,0 0.17122,0 0.111,0.02327 0.06641,0.06982 0.02214,0.1167 0,0.18229 0,0.2666 0,0.35384 0.02246,0.42155 0.06738,0.46973 0.1123,0.5179 0.17057,0.54199 0.24219,0.54199 c 0.06933,0 0.12597,-0.0236 0.16992,-0.0708 0.04394,-0.0472 0.06592,-0.11361 0.06592,-0.19922 0,-0.00521 -1.7e-4,-0.01302 -4.9e-4,-0.02343 H 0.09082 C 0.09408,0.19157 0.11019,0.14795 0.13916,0.11768 0.16813,0.0874 0.20426,0.07227 0.24756,0.07227 c 0.03223,0 0.05973,0.00846 0.08252,0.02539 0.02278,0.01692 0.04085,0.04394 0.0542,0.08105 M 0.0957,0.3208 H 0.38525 C 0.38135,0.36442 0.37028,0.39714 0.35205,0.41895 0.32406,0.4528 0.28776,0.46973 0.24316,0.46973 0.2028,0.46973 0.16878,0.45622 0.14111,0.4292 0.11377,0.40218 0.09863,0.36605 0.0957,0.3208 Z" />
  </symbol>
  <symbol
     id="font_2_58"
     transform="translate(-85.414472,-24.206139)">
    <path
       id="svg_14"
       d="M 0.3418,0.01172 V 0.08789 C 0.30143,0.0293 0.24658,0 0.17725,0 0.14665,0 0.118,0.00586 0.09131,0.01758 0.06494,0.0293 0.04525,0.04395 0.03223,0.06152 0.01953,0.07943 0.01058,0.10124 0.00537,0.12695 0.00179,0.14421 0,0.17155 0,0.20898 V 0.53027 H 0.08789 V 0.24268 c 0,-0.0459 0.00179,-0.07683 0.00537,-0.09278 C 0.0988,0.12679 0.11051,0.10856 0.12842,0.09521 0.14632,0.08219 0.16846,0.07568 0.19482,0.07568 c 0.02637,0 0.05111,0.00668 0.07422,0.02002 0.02311,0.01368 0.03939,0.03207 0.04883,0.05518 0.00977,0.02344 0.01465,0.05729 0.01465,0.10156 V 0.53027 H 0.42041 V 0.01172 Z" />
  </symbol>
  <symbol
     id="font_2_4f"
     transform="translate(-85.414472,-24.206139)">
    <path
       id="svg_15"
       d="M 0,0 V 0.71582 H 0.08789 V 0 Z" />
  </symbol>
  <symbol
     id="font_2_1d"
     transform="translate(-85.414472,-24.206139)">
    <path
       id="svg_16"
       d="M 0,0.41846 V 0.51855 H 0.1001 V 0.41846 H 0 M 0,0 V 0.1001 H 0.1001 V 0 Z" />
  </symbol>
  <symbol
     id="font_2_1b"
     transform="translate(-85.414472,-24.206139)">
    <path
       id="svg_17"
       d="M 0.13623,0.40039 C 0.09977,0.41374 0.07275,0.43278 0.05518,0.45752 0.0376,0.48226 0.02881,0.51188 0.02881,0.54639 c 0,0.05208 0.01872,0.09586 0.05615,0.13134 0.03744,0.03549 0.08724,0.05323 0.14942,0.05323 0.0625,0 0.11279,-0.01823 0.15087,-0.05469 C 0.42334,0.64014 0.44238,0.59603 0.44238,0.54395 0.44238,0.51074 0.43359,0.48177 0.41602,0.45703 0.39876,0.43262 0.3724,0.41374 0.33691,0.40039 0.38086,0.38607 0.41423,0.36296 0.43701,0.33105 0.46012,0.29915 0.47168,0.26107 0.47168,0.2168 0.47168,0.1556 0.45003,0.10417 0.40674,0.0625 0.36344,0.02083 0.30648,0 0.23584,0 0.1652,0 0.10824,0.02083 0.06494,0.0625 0.02165,0.10449 0,0.15674 0,0.21924 0,0.26579 0.01172,0.30469 0.03516,0.33594 0.05892,0.36751 0.09261,0.389 0.13623,0.40039 M 0.11865,0.54932 c 0,-0.03386 0.01091,-0.06153 0.03272,-0.08301 0.02181,-0.02149 0.05013,-0.03223 0.08496,-0.03223 0.03385,0 0.06152,0.01058 0.08301,0.03174 0.02181,0.02148 0.03271,0.04769 0.03271,0.07861 0,0.03223 -0.01123,0.05925 -0.03369,0.08106 C 0.29622,0.64762 0.26855,0.65869 0.23535,0.65869 0.20182,0.65869 0.17399,0.64795 0.15186,0.62646 0.12972,0.60498 0.11865,0.57926 0.11865,0.54932 M 0.09033,0.21875 C 0.09033,0.19368 0.09619,0.16943 0.10791,0.146 0.11995,0.12256 0.1377,0.10433 0.16113,0.09131 0.18457,0.07861 0.2098,0.07227 0.23682,0.07227 c 0.04199,0 0.07666,0.0135 0.104,0.04052 0.02734,0.02702 0.04102,0.06136 0.04102,0.10303 0,0.04232 -0.01416,0.07731 -0.04248,0.10498 C 0.31136,0.34847 0.2762,0.3623 0.23389,0.3623 0.19255,0.3623 0.1582,0.34863 0.13086,0.32129 0.10384,0.29395 0.09033,0.25977 0.09033,0.21875 Z" />
  </symbol>
  <symbol
     id="font_2_5b"
     transform="translate(-85.414472,-24.206139)">
    <path
       id="svg_18"
       d="M 0,0 0.18945,0.26953 0.01416,0.51855 H 0.12402 L 0.20361,0.39697 C 0.21859,0.37386 0.23063,0.35449 0.23975,0.33887 0.25407,0.36035 0.26725,0.37939 0.2793,0.396 L 0.3667,0.51855 H 0.47168 L 0.29248,0.27441 0.48535,0 H 0.37744 L 0.271,0.16113 0.24268,0.20459 0.10645,0 Z" />
  </symbol>
  <symbol
     id="font_2_46"
     transform="translate(-85.414472,-24.206139)">
    <path
       id="svg_19"
       d="M 0.36523,0.20166 0.45166,0.19043 C 0.44222,0.13086 0.41797,0.08415 0.37891,0.05029 0.34017,0.01676 0.29248,0 0.23584,0 0.16488,0 0.10775,0.02311 0.06445,0.06934 0.02148,0.11589 0,0.18245 0,0.26904 0,0.32503 0.00928,0.37402 0.02783,0.41602 0.04639,0.45801 0.07454,0.48942 0.1123,0.51025 0.15039,0.53141 0.19173,0.54199 0.23633,0.54199 0.29264,0.54199 0.3387,0.52767 0.37451,0.49902 0.41032,0.4707 0.43327,0.43034 0.44336,0.37793 L 0.35791,0.36475 C 0.34977,0.39958 0.33529,0.42578 0.31445,0.44336 0.29395,0.46094 0.26904,0.46973 0.23975,0.46973 0.19548,0.46973 0.15951,0.45378 0.13184,0.42188 0.10417,0.3903 0.09033,0.34017 0.09033,0.27148 0.09033,0.20182 0.10368,0.1512 0.13037,0.11963 0.15706,0.08805 0.19189,0.07227 0.23486,0.07227 c 0.03451,0 0.06332,0.01058 0.08643,0.03173 0.02311,0.02116 0.03776,0.05371 0.04394,0.09766 z" />
  </symbol>
  <symbol
     id="font_2_50"
     transform="translate(-85.414472,-24.206139)">
    <path
       id="svg_20"
       d="M 0,0 V 0.51855 H 0.07861 V 0.4458 c 0.01628,0.02539 0.03793,0.04574 0.06494,0.06104 0.02702,0.01562 0.05778,0.02343 0.09229,0.02343 0.03841,0 0.06982,-0.00797 0.09424,-0.02392 C 0.35482,0.4904 0.37223,0.4681 0.38232,0.43945 0.42334,0.5 0.47673,0.53027 0.54248,0.53027 0.59391,0.53027 0.63346,0.51595 0.66113,0.4873 0.6888,0.45898 0.70264,0.4152 0.70264,0.35596 V 0 H 0.61523 v 0.32666 c 0,0.03516 -0.00293,0.06038 -0.00878,0.07568 C 0.60091,0.41797 0.59066,0.4305 0.57568,0.43994 0.56071,0.44938 0.54313,0.4541 0.52295,0.4541 0.48649,0.4541 0.45622,0.44189 0.43213,0.41748 0.40804,0.39339 0.396,0.35465 0.396,0.30127 V 0 H 0.30811 v 0.33691 c 0,0.03907 -0.00717,0.06836 -0.02149,0.08789 C 0.2723,0.44434 0.24886,0.4541 0.21631,0.4541 0.19157,0.4541 0.16862,0.44759 0.14746,0.43457 0.12663,0.42155 0.11149,0.40251 0.10205,0.37744 0.09261,0.35238 0.08789,0.31624 0.08789,0.26904 V 0 Z" />
  </symbol>
  <symbol
     id="font_2_33"
     transform="translate(-85.414472,-24.206139)">
    <path
       id="svg_21"
       d="m 0,0 v 0.71582 h 0.27002 c 0.04753,0 0.08382,-0.00228 0.10889,-0.00684 C 0.41406,0.70313 0.44352,0.69189 0.46729,0.67529 0.49105,0.65902 0.51009,0.63607 0.52441,0.60645 0.53906,0.57682 0.54639,0.54427 0.54639,0.50879 0.54639,0.44792 0.52702,0.39632 0.48828,0.354 0.44954,0.31201 0.37956,0.29102 0.27832,0.29102 H 0.09473 V 0 H 0 m 0.09473,0.37549 h 0.18506 c 0.06119,0 0.10465,0.01139 0.13037,0.03418 0.02571,0.02278 0.03857,0.05485 0.03857,0.09619 0,0.02995 -0.00765,0.0555 -0.02295,0.07666 C 0.41081,0.604 0.39095,0.61816 0.36621,0.625 0.35026,0.62923 0.3208,0.63135 0.27783,0.63135 h -0.1831 z" />
  </symbol>
  <symbol
     id="font_2_4c"
     transform="translate(-85.414472,-24.206139)">
    <path
       id="svg_22"
       d="M 0,0.61475 V 0.71582 H 0.08789 V 0.61475 H 0 M 0,0 V 0.51855 H 0.08789 V 0 Z" />
  </symbol>
  <symbol
     id="font_2_24"
     transform="translate(-85.414472,-24.206139)">
    <path
       id="svg_23"
       d="M 0,0 0.2749,0.71582 H 0.37695 L 0.66992,0 H 0.56201 L 0.47852,0.2168 H 0.1792 L 0.10059,0 H 0 M 0.20654,0.29395 H 0.44922 L 0.37451,0.49219 C 0.35173,0.55241 0.3348,0.60189 0.32373,0.64063 0.31462,0.59473 0.30176,0.54915 0.28516,0.50391 Z" />
  </symbol>
  <symbol
     id="font_2_55"
     transform="translate(-85.414472,-24.206139)">
    <path
       id="svg_24"
       d="M 0,0 V 0.51855 H 0.0791 V 0.43994 c 0.02018,0.03679 0.03874,0.06104 0.05567,0.07276 0.01725,0.01171 0.03613,0.01757 0.05664,0.01757 0.02962,0 0.05973,-0.00944 0.09033,-0.02832 L 0.25146,0.42041 C 0.22998,0.43311 0.2085,0.43945 0.18701,0.43945 0.16781,0.43945 0.15055,0.43359 0.13525,0.42188 0.11995,0.41048 0.10905,0.39453 0.10254,0.37402 0.09277,0.34277 0.08789,0.30859 0.08789,0.27148 V 0 Z" />
  </symbol>
  <symbol
     id="font_2_44"
     transform="translate(-85.414472,-24.206139)">
    <path
       id="svg_25"
       d="M 0.36816,0.07568 C 0.33561,0.04801 0.3042,0.02848 0.27393,0.01709 0.24398,0.0057 0.21175,0 0.17725,0 0.12028,0 0.0765,0.01383 0.0459,0.0415 0.0153,0.0695 0,0.10514 0,0.14844 c 0,0.02539 0.0057,0.0485 0.01709,0.06933 0.01172,0.02116 0.02686,0.03809 0.04541,0.05078 0.01888,0.0127 0.04004,0.0223 0.06348,0.02881 0.01725,0.00456 0.04329,0.00896 0.07812,0.01319 0.07097,0.00846 0.12321,0.01855 0.15674,0.03027 3.3e-4,0.01204 4.9e-4,0.01969 4.9e-4,0.02295 0,0.03581 -0.0083,0.06103 -0.0249,0.07568 C 0.31396,0.45931 0.2806,0.46924 0.23633,0.46924 0.19499,0.46924 0.16439,0.46191 0.14453,0.44727 0.125,0.43294 0.11051,0.40739 0.10107,0.37061 L 0.01514,0.38232 c 0.00781,0.03679 0.02067,0.06641 0.03857,0.08887 0.0179,0.02279 0.04378,0.0402 0.07764,0.05225 0.03385,0.01237 0.07308,0.01855 0.11767,0.01855 0.04427,0 0.08024,-0.00521 0.10791,-0.01562 C 0.3846,0.51595 0.40495,0.50277 0.41797,0.48682 0.43099,0.47119 0.4401,0.45133 0.44531,0.42725 0.44824,0.41227 0.44971,0.38525 0.44971,0.34619 V 0.229 C 0.44971,0.1473 0.4515,0.09554 0.45508,0.07373 0.45898,0.05225 0.46647,0.03158 0.47754,0.01172 H 0.38574 C 0.37663,0.02995 0.37077,0.05127 0.36816,0.07568 M 0.36084,0.27197 C 0.32894,0.25895 0.28109,0.24788 0.21729,0.23877 0.18115,0.23356 0.1556,0.2277 0.14063,0.22119 0.12565,0.21468 0.1141,0.20508 0.10596,0.19238 0.09782,0.18001 0.09375,0.16618 0.09375,0.15088 c 0,-0.02344 0.00879,-0.04297 0.02637,-0.05859 0.0179,-0.01563 0.04394,-0.02344 0.07812,-0.02344 0.03386,0 0.06397,0.00732 0.09033,0.02197 0.02637,0.01497 0.04574,0.03532 0.05811,0.06104 0.00944,0.01985 0.01416,0.04915 0.01416,0.08789 z" />
  </symbol>
  <symbol
     id="font_2_2b"
     transform="translate(-85.414472,-24.206139)">
    <path
       id="svg_26"
       d="M 0,0 V 0.71582 H 0.09473 V 0.42188 H 0.4668 V 0.71582 H 0.56152 V 0 H 0.4668 V 0.3374 H 0.09473 V 0 Z" />
  </symbol>
  <symbol
     id="font_2_57"
     transform="translate(-85.414472,-24.206139)">
    <path
       id="svg_27"
       d="M 0.24023,0.08545 0.25293,0.00781 C 0.22819,0.0026 0.20605,0 0.18652,0 0.15462,0 0.12988,0.00505 0.1123,0.01514 0.09473,0.02523 0.08236,0.03841 0.0752,0.05469 0.06803,0.07129 0.06445,0.10596 0.06445,0.15869 V 0.45703 H 0 V 0.52539 H 0.06445 V 0.65381 L 0.15186,0.70654 V 0.52539 H 0.24023 V 0.45703 H 0.15186 V 0.15381 c 0,-0.02507 0.00146,-0.04118 0.00439,-0.04834 C 0.15951,0.09831 0.16455,0.09261 0.17139,0.08838 0.17855,0.08415 0.18864,0.08203 0.20166,0.08203 c 0.00977,0 0.02262,0.00114 0.03857,0.00342 z" />
  </symbol>
  <symbol
     id="font_2_47"
     transform="translate(-85.414472,-24.206139)">
    <path
       id="svg_28"
       d="M 0.36816,0.01172 V 0.07715 C 0.33529,0.02572 0.28695,0 0.22314,0 0.1818,0 0.14372,0.01139 0.10889,0.03418 0.07438,0.05697 0.04753,0.0887 0.02832,0.12939 0.00944,0.17041 0,0.21745 0,0.27051 0,0.32227 0.00863,0.36914 0.02588,0.41113 0.04313,0.45345 0.06901,0.48584 0.10352,0.5083 0.13802,0.53076 0.1766,0.54199 0.21924,0.54199 0.25049,0.54199 0.27832,0.53532 0.30273,0.52197 0.32715,0.50895 0.34701,0.49186 0.3623,0.4707 V 0.72754 H 0.44971 V 0.01172 H 0.36816 M 0.09033,0.27051 c 0,-0.06641 0.014,-0.11605 0.04199,-0.14893 0.028,-0.03288 0.06104,-0.04931 0.09913,-0.04931 0.03841,0 0.07096,0.01562 0.09765,0.04687 0.02702,0.03158 0.04053,0.07959 0.04053,0.14404 0,0.07097 -0.01367,0.12305 -0.04102,0.15625 C 0.30127,0.45264 0.26758,0.46924 0.22754,0.46924 0.18848,0.46924 0.15576,0.45329 0.12939,0.42139 0.10335,0.38949 0.09033,0.33919 0.09033,0.27051 Z" />
  </symbol>
  <symbol
     id="font_2_56"
     transform="translate(-85.414472,-24.206139)">
    <path
       id="svg_29"
       d="M 0,0.1665 0.08691,0.18018 C 0.0918,0.14535 0.10531,0.11865 0.12744,0.1001 0.1499,0.08154 0.18115,0.07227 0.22119,0.07227 c 0.04037,0 0.07031,0.00813 0.08985,0.02441 0.01953,0.0166 0.02929,0.03597 0.02929,0.05811 0,0.01985 -0.00862,0.03548 -0.02588,0.04687 C 0.30241,0.20947 0.27246,0.2194 0.22461,0.23145 0.16016,0.24772 0.1154,0.26172 0.09033,0.27344 0.06559,0.28548 0.04671,0.30192 0.03369,0.32275 0.021,0.34391 0.01465,0.36719 0.01465,0.39258 c 0,0.02311 0.00521,0.04443 0.01562,0.06396 C 0.04102,0.4764 0.0555,0.49284 0.07373,0.50586 0.0874,0.51595 0.10596,0.52441 0.12939,0.53125 0.15316,0.53841 0.17855,0.54199 0.20557,0.54199 0.24626,0.54199 0.2819,0.53613 0.3125,0.52441 0.34342,0.5127 0.36621,0.49674 0.38086,0.47656 0.39551,0.45671 0.4056,0.43001 0.41113,0.39648 L 0.3252,0.38477 C 0.32129,0.41146 0.3099,0.43229 0.29102,0.44727 0.27246,0.46224 0.24609,0.46973 0.21191,0.46973 0.17155,0.46973 0.14274,0.46305 0.12549,0.44971 0.10824,0.43636 0.09961,0.42074 0.09961,0.40283 0.09961,0.39144 0.10319,0.38118 0.11035,0.37207 0.11751,0.36263 0.12874,0.35482 0.14404,0.34863 0.15283,0.34538 0.17871,0.33789 0.22168,0.32617 0.28385,0.30957 0.32715,0.2959 0.35156,0.28516 0.3763,0.27474 0.39567,0.25944 0.40967,0.23926 0.42367,0.21908 0.43066,0.19401 0.43066,0.16406 0.43066,0.13477 0.42204,0.1071 0.40479,0.08105 0.38786,0.05534 0.36328,0.03532 0.33105,0.021 0.29883,0.007 0.26237,0 0.22168,0 0.1543,0 0.10286,0.014 0.06738,0.04199 0.03223,0.06999 0.00977,0.11149 0,0.1665 Z" />
  </symbol>
  <symbol
     id="font_2_14"
     transform="translate(-85.414472,-24.206139)">
    <path
       id="svg_30"
       d="M 0.26367,0 H 0.17578 V 0.56006 C 0.15462,0.53988 0.12679,0.51969 0.09229,0.49951 0.05811,0.47933 0.02734,0.46419 0,0.4541 v 0.08496 c 0.04915,0.02311 0.09212,0.05111 0.12891,0.08399 0.03678,0.03287 0.06282,0.06478 0.07812,0.0957 h 0.05664 z" />
  </symbol>
  <symbol
     id="font_2_6a"
     transform="translate(-85.414472,-24.206139)">
    <path
       id="svg_31"
       d="M 0.36816,0.07568 C 0.33561,0.04801 0.3042,0.02848 0.27393,0.01709 0.24398,0.0057 0.21175,0 0.17725,0 0.12028,0 0.0765,0.01383 0.0459,0.0415 0.0153,0.0695 0,0.10514 0,0.14844 c 0,0.02539 0.0057,0.0485 0.01709,0.06933 0.01172,0.02116 0.02686,0.03809 0.04541,0.05078 0.01888,0.0127 0.04004,0.0223 0.06348,0.02881 0.01725,0.00456 0.04329,0.00896 0.07812,0.01319 0.07097,0.00846 0.12321,0.01855 0.15674,0.03027 3.3e-4,0.01204 4.9e-4,0.01969 4.9e-4,0.02295 0,0.03581 -0.0083,0.06103 -0.0249,0.07568 C 0.31396,0.45931 0.2806,0.46924 0.23633,0.46924 0.19499,0.46924 0.16439,0.46191 0.14453,0.44727 0.125,0.43294 0.11051,0.40739 0.10107,0.37061 L 0.01514,0.38232 c 0.00781,0.03679 0.02067,0.06641 0.03857,0.08887 0.0179,0.02279 0.04378,0.0402 0.07764,0.05225 0.03385,0.01237 0.07308,0.01855 0.11767,0.01855 0.04427,0 0.08024,-0.00521 0.10791,-0.01562 C 0.3846,0.51595 0.40495,0.50277 0.41797,0.48682 0.43099,0.47119 0.4401,0.45133 0.44531,0.42725 0.44824,0.41227 0.44971,0.38525 0.44971,0.34619 V 0.229 C 0.44971,0.1473 0.4515,0.09554 0.45508,0.07373 0.45898,0.05225 0.46647,0.03158 0.47754,0.01172 H 0.38574 C 0.37663,0.02995 0.37077,0.05127 0.36816,0.07568 M 0.36084,0.27197 C 0.32894,0.25895 0.28109,0.24788 0.21729,0.23877 0.18115,0.23356 0.1556,0.2277 0.14063,0.22119 0.12565,0.21468 0.1141,0.20508 0.10596,0.19238 0.09782,0.18001 0.09375,0.16618 0.09375,0.15088 c 0,-0.02344 0.00879,-0.04297 0.02637,-0.05859 0.0179,-0.01563 0.04394,-0.02344 0.07812,-0.02344 0.03386,0 0.06397,0.00732 0.09033,0.02197 0.02637,0.01497 0.04574,0.03532 0.05811,0.06104 0.00944,0.01985 0.01416,0.04915 0.01416,0.08789 V 0.27197 M 0.31299,0.59473 h -0.0708 l -0.1128,0.13672 h 0.11768 z" />
  </symbol>
  <symbol
     id="font_2_f"
     transform="translate(-85.414472,-24.206139)">
    <path
       id="svg_32"
       d="m 0.00586,0.1416 v 0.1001 h 0.1001 V 0.1416 C 0.10596,0.10482 0.09945,0.0752 0.08643,0.05273 0.0734,0.02995 0.05273,0.01237 0.02441,0 L 0,0.0376 C 0.01855,0.04574 0.03223,0.05778 0.04102,0.07373 0.0498,0.08936 0.05469,0.11198 0.05566,0.1416 Z" />
  </symbol>
  <symbol
     id="font_2_18"
     transform="translate(-85.414472,-24.206139)">
    <path
       id="svg_33"
       d="M 0,0.19971 0.09229,0.20752 C 0.09912,0.1626 0.11491,0.12874 0.13965,0.10596 0.16471,0.0835 0.19482,0.07227 0.22998,0.07227 c 0.04232,0 0.07813,0.01595 0.10742,0.04785 0.0293,0.0319 0.04395,0.07422 0.04395,0.12695 0,0.05013 -0.01416,0.08968 -0.04248,0.11865 C 0.31087,0.39469 0.27409,0.40918 0.22852,0.40918 0.2002,0.40918 0.17464,0.40267 0.15186,0.38965 0.12907,0.37695 0.11117,0.36035 0.09814,0.33984 L 0.01563,0.35059 0.08496,0.71826 H 0.44092 V 0.63428 H 0.15527 L 0.1167,0.44189 c 0.04297,0.02995 0.08805,0.04493 0.13525,0.04493 0.0625,0 0.11524,-0.02165 0.15821,-0.06494 C 0.45313,0.37858 0.47461,0.32292 0.47461,0.25488 0.47461,0.1901 0.45573,0.13411 0.41797,0.08691 0.37207,0.02897 0.30941,0 0.22998,0 0.16488,0 0.11165,0.01823 0.07031,0.05469 0.0293,0.09115 0.00586,0.13949 0,0.19971 Z" />
  </symbol>
  <symbol
     id="font_2_4d"
     transform="translate(-85.414472,-24.206139)">
    <path
       id="svg_96"
       d="M 0.11133,0.82422 V 0.92627 H 0.19922 V 0.82422 H 0.11133 M 0,0.00928 0.0166,0.08398 C 0.03418,0.07943 0.04801,0.07715 0.05811,0.07715 c 0.0179,0 0.03125,0.00602 0.04003,0.01806 0.00879,0.01172 0.01319,0.04135 0.01319,0.08887 V 0.729 H 0.19922 V 0.18213 c 0,-0.0638 -0.0083,-0.10824 -0.0249,-0.1333 C 0.15316,0.01628 0.118,0 0.06885,0 0.04508,0 0.02214,0.00309 0,0.00928 Z" />
  </symbol>
  <symbol
     id="font_2_28"
     transform="translate(-85.414472,-24.206139)">
    <path
       id="svg_97"
       d="M 0,0 V 0.71582 H 0.51758 V 0.63135 H 0.09473 V 0.41211 H 0.49072 V 0.32813 H 0.09473 V 0.08447 H 0.53418 V 0 Z" />
  </symbol>
  <symbol
     id="font_2_2c"
     transform="translate(-85.414472,-24.206139)">
    <path
       id="svg_98"
       d="M 0,0 V 0.71582 H 0.09473 V 0 Z" />
  </symbol>
  <symbol
     id="font_2_35"
     transform="translate(-85.414472,-24.206139)">
    <path
       id="svg_99"
       d="m 0,0 v 0.71582 h 0.31738 c 0.0638,0 0.11231,-0.00651 0.14551,-0.01953 C 0.49609,0.68359 0.52262,0.66097 0.54248,0.62842 0.56234,0.59587 0.57227,0.5599 0.57227,0.52051 0.57227,0.46973 0.55583,0.42692 0.52295,0.39209 0.49007,0.35726 0.43929,0.33512 0.37061,0.32568 0.39567,0.31364 0.41471,0.30176 0.42773,0.29004 0.4554,0.26465 0.48161,0.23291 0.50635,0.19482 L 0.63086,0 H 0.51172 L 0.41699,0.14893 C 0.38932,0.19189 0.36654,0.22477 0.34863,0.24756 0.33073,0.27035 0.31462,0.2863 0.30029,0.29541 0.2863,0.30452 0.27197,0.31087 0.25732,0.31445 0.24658,0.31673 0.229,0.31787 0.20459,0.31787 H 0.09473 V 0 H 0 m 0.09473,0.3999 h 0.20361 c 0.04329,0 0.07715,0.0044 0.10156,0.01319 C 0.42432,0.4222 0.44287,0.43652 0.45557,0.45605 0.46826,0.47591 0.47461,0.4974 0.47461,0.52051 0.47461,0.55436 0.46224,0.58219 0.4375,0.604 0.41309,0.62581 0.37435,0.63672 0.32129,0.63672 H 0.09473 Z" />
  </symbol>
  <symbol
     id="font_2_25"
     transform="translate(-85.414472,-24.206139)">
    <path
       id="svg_100"
       d="M 0,0 V 0.71582 H 0.26855 C 0.32324,0.71582 0.36702,0.7085 0.3999,0.69385 0.43311,0.67952 0.45898,0.65723 0.47754,0.62695 0.49642,0.59701 0.50586,0.56559 0.50586,0.53271 0.50586,0.50212 0.49756,0.47331 0.48096,0.44629 0.46436,0.41927 0.43929,0.39746 0.40576,0.38086 0.44906,0.36816 0.48226,0.34652 0.50537,0.31592 0.52881,0.28532 0.54053,0.24919 0.54053,0.20752 0.54053,0.17399 0.53337,0.14274 0.51904,0.11377 0.50505,0.08512 0.48763,0.06299 0.4668,0.04736 0.44596,0.03174 0.41976,0.01986 0.38818,0.01172 0.35693,0.00391 0.31852,0 0.27295,0 H 0 m 0.09473,0.41504 h 0.15478 c 0.04199,0 0.0721,0.00277 0.09033,0.0083 0.02409,0.00716 0.04216,0.01904 0.0542,0.03564 0.01237,0.01661 0.01856,0.03744 0.01856,0.0625 0,0.02377 -0.0057,0.0446 -0.01709,0.0625 C 0.38411,0.60221 0.36784,0.61458 0.34668,0.62109 0.32552,0.62793 0.28923,0.63135 0.23779,0.63135 H 0.09473 V 0.41504 m 0,-0.33057 h 0.17822 c 0.0306,0 0.05208,0.00114 0.06445,0.00342 0.02181,0.00391 0.04004,0.01042 0.05469,0.01953 0.01465,0.00912 0.02669,0.0223 0.03613,0.03955 0.00944,0.01758 0.01416,0.03776 0.01416,0.06055 0,0.02669 -0.00683,0.0498 -0.0205,0.06934 C 0.4082,0.29671 0.38916,0.31055 0.36475,0.31836 0.34066,0.3265 0.30583,0.33057 0.26025,0.33057 H 0.09473 Z" />
  </symbol>
  <symbol
     id="font_2_3a"
     transform="translate(-85.414472,-24.206139)">
    <path
       id="svg_101"
       d="M 0.18994,0 0,0.71582 H 0.09717 L 0.20605,0.24658 C 0.21777,0.19743 0.22786,0.1486 0.23633,0.1001 0.25456,0.1766 0.2653,0.2207 0.26855,0.23242 l 0.13624,0.4834 H 0.51904 L 0.62158,0.35352 C 0.6473,0.26367 0.66585,0.1792 0.67725,0.1001 0.68636,0.14535 0.69824,0.19727 0.71289,0.25586 L 0.8252,0.71582 H 0.92041 L 0.72412,0 H 0.63281 L 0.48193,0.54541 C 0.46924,0.59098 0.46175,0.61898 0.45947,0.62939 0.45199,0.59652 0.44499,0.56852 0.43848,0.54541 L 0.28662,0 Z" />
  </symbol>
  <symbol
     id="font_2_30"
     transform="translate(-85.414472,-24.206139)">
    <path
       id="svg_102"
       d="M 0,0 V 0.71582 H 0.14258 L 0.31201,0.20898 C 0.32764,0.16178 0.33903,0.12646 0.34619,0.10303 0.35433,0.12907 0.36702,0.16732 0.38428,0.21777 L 0.55566,0.71582 H 0.68311 V 0 H 0.5918 V 0.59912 L 0.38379,0 H 0.29834 L 0.09131,0.60938 V 0 Z" />
  </symbol>
  <symbol
     id="font_2_71"
     transform="translate(-85.414472,-24.206139)">
    <path
       id="svg_103"
       d="M 0.38428,0.17871 0.4751,0.16748 C 0.46077,0.11442 0.43424,0.07324 0.39551,0.04395 0.35677,0.01465 0.30729,0 0.24707,0 0.17122,0 0.111,0.02327 0.06641,0.06982 0.02214,0.1167 0,0.18229 0,0.2666 0,0.35384 0.02246,0.42155 0.06738,0.46973 0.1123,0.5179 0.17057,0.54199 0.24219,0.54199 c 0.06933,0 0.12597,-0.0236 0.16992,-0.0708 0.04394,-0.0472 0.06592,-0.11361 0.06592,-0.19922 0,-0.00521 -1.7e-4,-0.01302 -4.9e-4,-0.02343 H 0.09082 C 0.09408,0.19157 0.11019,0.14795 0.13916,0.11768 0.16813,0.0874 0.20426,0.07227 0.24756,0.07227 c 0.03223,0 0.05973,0.00846 0.08252,0.02539 0.02278,0.01692 0.04085,0.04394 0.0542,0.08105 M 0.0957,0.3208 H 0.38525 C 0.38135,0.36442 0.37028,0.39714 0.35205,0.41895 0.32406,0.4528 0.28776,0.46973 0.24316,0.46973 0.2028,0.46973 0.16878,0.45622 0.14111,0.4292 0.11377,0.40218 0.09863,0.36605 0.0957,0.3208 M 0.29834,0.59473 H 0.22754 L 0.11475,0.73145 h 0.11767 z" />
  </symbol>
  <symbol
     id="font_2_d"
     transform="translate(-85.414472,-24.206139)">
    <path
       id="svg_104"
       d="M 0,0.16113 0.02246,0.23047 C 0.07422,0.21224 0.11182,0.19645 0.13525,0.18311 0.12907,0.24202 0.12581,0.28255 0.12549,0.30469 h 0.0708 C 0.19531,0.27246 0.19157,0.2321 0.18506,0.18359 0.21859,0.20052 0.257,0.21615 0.30029,0.23047 L 0.32275,0.16113 C 0.28141,0.14746 0.24089,0.13835 0.20117,0.13379 0.22103,0.11654 0.24902,0.08577 0.28516,0.0415 L 0.22656,0 C 0.20768,0.02572 0.18538,0.06071 0.15967,0.10498 0.13558,0.05908 0.11442,0.02409 0.09619,0 L 0.03857,0.0415 C 0.07633,0.08805 0.10335,0.11882 0.11963,0.13379 0.07764,0.14193 0.03776,0.15104 0,0.16113 Z" />
  </symbol>
  <symbol
     id="font_2_2e"
     transform="translate(-85.414472,-24.206139)">
    <path
       id="svg_105"
       d="M 0,0 V 0.71582 H 0.09473 V 0.36084 L 0.4502,0.71582 H 0.57861 L 0.27832,0.42578 0.5918,0 H 0.4668 L 0.21191,0.3623 0.09473,0.24805 V 0 Z" />
  </symbol>
  <symbol
     id="font_2_17"
     transform="translate(-85.414472,-24.206139)">
    <path
       id="svg_106"
       d="M 0.31055,0 V 0.17139 H 0 V 0.25195 L 0.32666,0.71582 H 0.39844 V 0.25195 H 0.49512 V 0.17139 H 0.39844 V 0 H 0.31055 m 0,0.25195 V 0.57471 L 0.08643,0.25195 Z" />
  </symbol>
  <symbol
     id="font_2_19"
     transform="translate(-85.414472,-24.206139)">
    <path
       id="svg_107"
       d="M 0.45996,0.55273 0.37256,0.5459 C 0.36475,0.5804 0.35368,0.60547 0.33936,0.62109 0.31559,0.64616 0.2863,0.65869 0.25146,0.65869 0.22347,0.65869 0.19889,0.65088 0.17773,0.63525 0.15007,0.61507 0.12826,0.58561 0.1123,0.54688 0.09635,0.50814 0.08805,0.45296 0.0874,0.38135 0.10856,0.41357 0.13444,0.4375 0.16504,0.45313 c 0.0306,0.01562 0.06266,0.02343 0.09619,0.02343 0.05859,0 0.1084,-0.02164 0.14941,-0.06494 C 0.45199,0.36865 0.47266,0.31299 0.47266,0.24463 0.47266,0.19971 0.46289,0.15788 0.44336,0.11914 0.42415,0.08073 0.39762,0.05127 0.36377,0.03076 0.32992,0.01025 0.2915,0 0.24854,0 0.17529,0 0.11556,0.02686 0.06934,0.08057 0.02311,0.1346 0,0.22347 0,0.34717 0,0.48551 0.02555,0.5861 0.07666,0.64893 c 0.0446,0.05468 0.10466,0.08203 0.18018,0.08203 0.05631,0 0.10237,-0.01579 0.13818,-0.04737 C 0.43115,0.65202 0.4528,0.6084 0.45996,0.55273 M 0.10107,0.24414 C 0.10107,0.21387 0.10742,0.1849 0.12012,0.15723 0.13314,0.12956 0.1512,0.1084 0.17432,0.09375 0.19743,0.07943 0.22168,0.07227 0.24707,0.07227 c 0.03711,0 0.06901,0.01497 0.0957,0.04492 0.0267,0.02995 0.04004,0.07064 0.04004,0.12207 0,0.04948 -0.01318,0.08838 -0.03955,0.1167 C 0.31689,0.3846 0.28369,0.39893 0.24365,0.39893 0.20394,0.39893 0.17025,0.3846 0.14258,0.35596 0.11491,0.32764 0.10107,0.29036 0.10107,0.24414 Z" />
  </symbol>
  <symbol
     id="font_2_26"
     transform="translate(-85.414472,-24.206139)">
    <path
       id="svg_108"
       d="M 0.53809,0.26318 0.63281,0.23926 C 0.61296,0.16146 0.57715,0.10205 0.52539,0.06104 0.47396,0.02035 0.41097,0 0.33643,0 0.25928,0 0.19645,0.01562 0.14795,0.04688 0.09977,0.07845 0.06299,0.12402 0.0376,0.18359 0.01253,0.24316 0,0.30713 0,0.37549 0,0.45003 0.01416,0.51497 0.04248,0.57031 0.07113,0.62598 0.11165,0.66813 0.16406,0.69678 0.2168,0.72575 0.27474,0.74023 0.33789,0.74023 0.40951,0.74023 0.46973,0.72201 0.51855,0.68555 0.56738,0.64909 0.6014,0.59782 0.62061,0.53174 L 0.52734,0.50977 C 0.51074,0.56185 0.48665,0.59977 0.45508,0.62354 0.4235,0.6473 0.38379,0.65918 0.33594,0.65918 0.28092,0.65918 0.23486,0.646 0.19775,0.61963 0.16097,0.59326 0.13509,0.55778 0.12012,0.51318 0.10514,0.46891 0.09766,0.42318 0.09766,0.37598 0.09766,0.3151 0.10645,0.26188 0.12402,0.21631 0.14193,0.17106 0.1696,0.13721 0.20703,0.11475 0.24447,0.09229 0.28499,0.08105 0.32861,0.08105 c 0.05306,0 0.09799,0.0153 0.13477,0.0459 0.03678,0.0306 0.06169,0.07601 0.07471,0.13623 z" />
  </symbol>
  <symbol
     id="font_2_2d"
     transform="translate(-85.414472,-24.206139)">
    <path
       id="svg_109"
       d="M 0.0013,0.21533 0.08675,0.22705 C 0.08903,0.17236 0.09928,0.13493 0.11751,0.11475 0.13574,0.09456 0.16097,0.08447 0.1932,0.08447 c 0.02376,0 0.04427,0.00537 0.06152,0.01612 0.01725,0.01106 0.02913,0.02587 0.03564,0.04443 0.00652,0.01888 0.00977,0.04883 0.00977,0.08984 V 0.72803 H 0.39486 V 0.24023 C 0.39486,0.18034 0.38753,0.13395 0.37288,0.10107 0.35856,0.0682 0.33561,0.04313 0.30404,0.02588 0.27279,0.00863 0.236,0 0.19368,0 0.13086,0 0.08268,0.01807 0.04915,0.0542 0.01595,0.09033 0,0.14404 0.0013,0.21533 Z" />
  </symbol>
  <symbol
     id="font_2_4e"
     transform="translate(-85.414472,-24.206139)">
    <path
       id="svg_110"
       d="M 0,0 V 0.71582 H 0.08789 V 0.30762 L 0.2959,0.51855 H 0.40967 L 0.21143,0.32617 0.42969,0 H 0.32129 L 0.1499,0.26514 0.08789,0.20557 V 0 Z" />
  </symbol>
  <symbol
     id="font_2_12"
     transform="translate(-85.414472,-24.206139)">
    <path
       id="svg_111"
       d="M 0,0 0.20752,0.74023 H 0.27783 L 0.0708,0 Z" />
  </symbol>
  <symbol
     id="font_2_51"
     transform="translate(-85.414472,-24.206139)">
    <path
       id="svg_112"
       d="M 0,0 V 0.51855 H 0.0791 V 0.44482 c 0.03809,0.05697 0.0931,0.08545 0.16504,0.08545 0.03125,0 0.0599,-0.00569 0.08594,-0.01709 C 0.35645,0.50212 0.37614,0.48747 0.38916,0.46924 0.40218,0.45101 0.4113,0.42936 0.4165,0.4043 0.41976,0.38802 0.42139,0.35954 0.42139,0.31885 V 0 H 0.3335 v 0.31543 c 0,0.03581 -0.00342,0.0625 -0.01026,0.08008 C 0.31641,0.41341 0.3042,0.42757 0.28662,0.43799 0.26937,0.44873 0.24902,0.4541 0.22559,0.4541 0.18815,0.4541 0.15576,0.44222 0.12842,0.41846 0.1014,0.39469 0.08789,0.34961 0.08789,0.2832 V 0 Z" />
  </symbol>
  <symbol
     id="font_2_3c"
     transform="translate(-85.414472,-24.206139)">
    <path
       id="svg_113"
       d="M 0.27588,0 V 0.30322 L 0,0.71582 H 0.11523 L 0.25635,0.5 C 0.28239,0.45964 0.30664,0.41927 0.3291,0.37891 0.35059,0.41634 0.37663,0.4585 0.40723,0.50537 L 0.5459,0.71582 H 0.65625 L 0.37061,0.30322 V 0 Z" />
  </symbol>
  <symbol
     id="font_2_5a"
     transform="translate(-85.414472,-24.206139)">
    <path
       id="svg_114"
       d="M 0.15869,0 0,0.51855 H 0.09082 L 0.17334,0.21924 0.2041,0.10791 C 0.2054,0.11344 0.21436,0.14909 0.23096,0.21484 L 0.31348,0.51855 H 0.40381 L 0.48145,0.21777 0.50732,0.11865 0.53711,0.21875 0.62598,0.51855 H 0.71143 L 0.54932,0 H 0.45801 L 0.37549,0.31055 0.35547,0.39893 0.25049,0 Z" />
  </symbol>
  <symbol
     id="font_5_3"
     transform="translate(-85.414472,-24.206139)">
    <path
       id="svg_184"
       d="M 0,0 Z" />
  </symbol>
  <path
     id="svg_188"
     fill="#05080c"
     d="m 71.733628,258.27778 c 1.36111,-3.16944 2.53056,-5.89722 3.7,-8.625 0.33333,-0.77778 -0.24444,-0.75556 -0.71389,-0.75833 -1.93889,-0.0111 -3.87778,0.0111 -5.81667,-0.006 -1.05556,-0.0111 -1.19444,0.43333 -0.79167,1.31667 1.14722,2.50556 2.25833,5.025 3.62222,8.07222 m 11.2,-80.48055 c -1.11389,-0.22222 -2.39722,0.17222 -3.40833,1.15556 -1.65833,1.61667 -2.58889,3.71944 -3.57778,5.76944 -0.13889,0.29167 -0.15833,0.51944 0.11389,0.76111 0.975,0.875 3.13611,0.66667 3.89167,-0.425 1.24167,-1.8 2.425,-3.61111 5.11944,-3.01111 0.81111,0.18056 1.25278,-0.39722 1.37778,-1.22778 0.33889,-2.28333 -0.475,-3.06944 -3.51667,-3.02222 m -25.98055,2.19167 c -0.23056,1.48333 0.625,2.27222 2.21944,2.01111 2.02778,-0.33333 2.99444,0.79167 3.84722,2.31111 1.46667,2.62222 1.04722,2.21389 4.13333,1.41667 0.79722,-0.20278 0.84167,-0.54444 0.5,-1.25556 -0.76389,-1.58889 -1.60278,-3.13056 -2.66667,-4.53056 -1.43889,-1.89722 -4.56389,-2.81389 -6.80556,-2.05556 -0.89722,0.30278 -1.30278,0.93889 -1.22778,2.10278 m 3.75556,41.68889 c 1.04444,0 1.67778,0 2.31111,0 5.29444,-0.003 10.58611,0.0194 15.87778,-0.025 1.25556,-0.0111 3.11111,0.61389 3.61111,-0.31944 0.50278,-0.93889 -1.05278,-2.15833 -1.63333,-3.29444 -0.46944,-0.91389 -1,-1.62778 -2.25,-1.61111 -4.52778,0.0667 -9.05833,0.0333 -13.58611,0.0306 -0.54167,-0.003 -1.06389,0.008 -1.39722,0.53889 -0.89722,1.43333 -1.79722,2.86667 -2.93333,4.68056 m -18.28889,-38.65238 c -1.34444,0 -2.225,-0.0167 -3.10556,0.003 -1.64722,0.0361 -2.23889,0.99167 -1.725,2.56389 0.57778,1.76389 1.99444,1.63611 3.31389,1.46944 2.74167,-0.34722 4.58889,0.66389 6.13056,2.99167 2.01389,3.04722 4.13333,6.15833 8.10556,7.02778 0.65,0.14167 1.34167,0.98611 1.89722,0.38056 0.51389,-0.56389 0.55,-1.52222 0.475,-2.34722 -0.0639,-0.725 -0.66667,-1.11111 -1.20278,-1.43333 -2.68889,-1.61389 -4.45278,-4.07778 -6.32222,-6.50278 -1.98056,-2.56667 -4.16389,-5.07778 -7.56667,-4.15278 m 43.725,12.90278 c 0.11667,2.30556 0.0639,2.16944 2.11667,1.41944 3.13611,-1.14444 5.53611,-2.99167 7.28056,-5.89722 1.87778,-3.12222 4.480562,-5.22222 8.500002,-4.35278 0.11389,0.0222 0.23611,-0.006 0.35278,-0.003 1.64167,0.0444 1.86389,-1.07778 1.94167,-2.34444 0.0833,-1.34444 -0.68889,-1.73333 -1.85556,-1.73333 -1.28889,0 -2.58333,-0.0667 -3.86944,-0.0111 -0.855562,0.0361 -1.766672,-0.275 -2.566672,0.3 -1.66944,1.19722 -3.50556,2.30556 -4.6,4.04167 -1.69167,2.68611 -3.79444,4.88611 -6.43333,6.59167 -0.80278,0.51944 -1.14167,1.14167 -0.86667,1.98889 m 3.21111,27.7 c 0.33611,2.05278 1.03333,4.66944 2.07778,5.34167 2.125,1.36667 1.73056,3.32778 1.74444,5.25278 0.0167,1.88056 0.26667,3.8 -0.0306,5.63056 -0.825,5.07778 0.9,8.84167 5.29722,11.43611 0.1,0.0583 0.18056,0.14722 0.26944,0.225 0.86111,0.76667 1.780562,0.98056 2.630562,0.0583 0.86667,-0.94167 1.29444,-2 0.16389,-3.075 -0.93611,-0.88889 -1.838892,-1.83056 -2.866672,-2.6 -1.15833,-0.86667 -1.49722,-1.91111 -1.47222,-3.325 0.075,-4.28333 0.0139,-8.57222 0.003,-12.85833 0,-0.63889 0.0889,-1.3 -0.475,-1.79722 -2.11667,-1.86944 -4.34167,-3.55 -7.34167,-4.28889 m -17.70833,14.61389 c -3.46667,0 -6.93333,-0.0222 -10.4,0.0111 -1.025,0.0111 -2.55833,-0.47778 -2.95278,0.29722 -0.45556,0.89444 0.78056,1.93611 1.23611,2.93333 0.70278,1.53611 1.74444,2.175 3.57222,2.11667 5.10556,-0.15556 10.24167,-0.33333 15.32222,0.0472 3.35556,0.25 5.05833,-1.05 6.28611,-3.86667 0.52778,-1.20833 0.58889,-1.59167 -0.90278,-1.56667 -4.05278,0.0667 -8.10833,0.0222 -12.16111,0.0278 m -17.11685,-14.28053 c -3.12222,0.74722 -5.38889,2.23056 -7.58333,3.89444 -0.77778,0.58889 -1.09444,1.24444 -1.08333,2.225 0.0417,3.58056 -0.15833,7.17222 0.05,10.74444 0.16389,2.8 -0.35833,5.06111 -2.87778,6.60833 -0.48333,0.29722 -0.84167,0.80833 -1.22778,1.24722 -0.91667,1.04722 -0.68611,2.05833 0.19167,2.97222 0.88333,0.91389 1.73611,0.65833 2.60556,-0.11389 1.4,-1.24722 2.8,-2.50833 4.29167,-3.63889 0.94722,-0.71389 1.28056,-1.50278 1.26389,-2.67778 -0.0583,-4.40278 -0.0194,-8.80833 0.008,-13.21389 0.003,-0.61389 -0.26389,-1.43889 0.46389,-1.75833 2.69444,-1.17778 2.50833,-3.975 3.89722,-6.28889 m 17.02778,8.84167 v 0.0111 c 4.28889,0 8.58056,0.0111 12.86944,-0.003 2.83611,-0.0111 2.83333,-0.0278 1.58889,-2.46944 -0.29444,-0.575 -0.64722,-1.13056 -0.85833,-1.73611 -0.40833,-1.18333 -1.15833,-1.52222 -2.40556,-1.50556 -6.46389,0.0778 -12.92778,0.0556 -19.39444,0.0667 -4.45833,0.008 -4.42778,0.0222 -6.35278,4.05 -0.57778,1.20556 -0.475,1.62778 0.975,1.60833 4.525,-0.0583 9.05,-0.0222 13.57778,-0.0222 m -9.69722,-33.04722 c -0.0472,5.21944 4.21111,9.47778 9.50833,9.50556 5.45,0.0278 9.86944,-4.22778 9.91944,-9.55278 0.0472,-4.88611 -4.39722,-9.31667 -9.36111,-9.33889 -5.54444,-0.025 -10.01944,4.14722 -10.06667,9.38611 m -0.64444,11.88611 c -0.42778,-0.0861 -0.58889,-0.14722 -0.74722,-0.14444 -7.53889,0.0167 -15.05,0.23333 -22.19167,3.10833 -1.23056,0.49444 -2.38333,0.33056 -3.08333,-0.86389 -0.65833,-1.11944 -0.2,-2.17778 0.64444,-3.03056 0.40278,-0.40833 0.91111,-0.74167 1.41944,-1.01667 1.66111,-0.88889 3.41667,-1.55556 5.23056,-2.06389 4.50833,-1.26389 9.11667,-1.625 13.77222,-1.59722 0.43611,0.003 1.025,0.28611 1.29722,-0.18889 0.30833,-0.53056 -0.15556,-1.01944 -0.45,-1.42222 -0.56111,-0.76667 -1.35556,-1.26111 -2.21944,-1.67778 -3.35556,-1.61389 -6.89444,-2.66389 -10.52778,-3.39444 -6.11667,-1.23333 -12.25833,-2.11944 -18.50833,-1.00556 -4.59444,0.81944 -8.54444,4.34444 -9.44722,8.45556 -0.99444,4.51389 0.97222,9.03611 5.11389,11.82778 4.38333,2.95556 9.38611,4.1 14.49722,4.31667 6.16667,0.26389 11.96111,-1.50278 17.27778,-4.68333 2.91667,-1.74444 5.82778,-3.50556 7.92222,-6.61944 m 51.255552,-13.68611 c -2.16944,-0.15556 -4.50278,0.125 -6.83889,0.40556 -6.269442,0.75278 -12.411112,1.97778 -18.063892,4.97222 -0.61944,0.33056 -1.26389,0.625 -1.63333,1.28611 -0.44722,0.8 -0.70556,1.43611 0.66389,1.40556 3,-0.0611 5.98889,0.11667 8.97222,0.43889 4.125,0.44167 8.077782,1.48056 11.711112,3.53056 1.73056,0.97778 2.31111,2.29722 1.64444,3.57778 -0.82222,1.575 -2.25278,1.4 -3.54167,0.90556 -6.772222,-2.59444 -13.852782,-2.93611 -20.977782,-3.01111 -0.48889,-0.003 -1.20278,-0.23333 -1.41944,0.31944 -0.20278,0.51667 0.39722,0.91389 0.75556,1.27778 3.13889,3.175 6.80278,5.57222 10.91944,7.27778 9.561112,3.96667 18.938892,3.59167 27.905552,-1.61111 3.81944,-2.21389 5.72222,-5.82222 5.34444,-10.375 -0.38333,-4.6 -3,-7.48056 -7.14722,-9.2 -2.61111,-1.08333 -5.33056,-1.29444 -8.29444,-1.2 m 18.67222,1.33889 c 0.40833,-0.61389 0.23333,-1.20833 0.23333,-1.76667 0.0111,-5.35278 -0.17778,-10.71667 0.0778,-16.05833 0.12778,-2.68889 -0.825,-4.04722 -3.09444,-5.31667 -18.31667,-10.24167 -36.586112,-20.56667 -54.794442,-30.99722 -1.98611,-1.13611 -3.45833,-0.95278 -5.23056,0.0639 -6.57222,3.78056 -13.175,7.50833 -19.76389,11.26111 -11.8,6.72222 -23.6,13.44722 -35.39722,20.17778 -0.91111,0.52222 -1.71389,0.97778 -1.69444,2.36389 0.09722,6.70556 0.05,13.41389 0.07222,20.12222 0,0.41944 -0.21111,0.94722 0.48056,1.28889 1.75556,-1.68889 3.74722,-3.14444 5.93889,-4.26667 0.95556,-0.48889 1.2,-1.1 1.19167,-2.075 -0.0333,-3.41111 0.0833,-6.82778 -0.0389,-10.23611 -0.0528,-1.51389 0.49444,-2.26944 1.78333,-2.99167 16.32222,-9.15278 32.61111,-18.35833 48.88889,-27.58611 0.96944,-0.55 1.69444,-0.41667 2.58889,0.0917 6.33611,3.60278 12.7,7.15278 19.03889,10.74722 10.177782,5.76944 20.313892,11.61111 30.544442,17.28333 1.44722,0.80278 1.83611,1.63333 1.81389,3.11944 -0.0472,3 0.0472,6 0.1,9 0.0111,0.57222 -0.0444,1.17222 0.58056,1.55833 2.22778,1.38611 4.43889,2.79722 6.68056,4.21667 m 0.26389,19.575 c -2.13889,1.32222 -3.76389,3.33889 -5.99444,4.51667 -1.21944,0.64167 -1.53333,1.52778 -1.525,2.84722 0.0306,6.11944 -0.11389,12.23889 -0.0278,18.35555 0.0278,1.83333 -0.56667,2.87778 -2.14722,3.76389 -16.41944,9.19722 -32.808332,18.44722 -49.188892,27.71667 -0.84444,0.47778 -1.45,0.41944 -2.25556,-0.0417 -16.53055,-9.45278 -33.075,-18.89167 -49.63055,-28.30278 -1.025,-0.58333 -1.49722,-1.225 -1.48333,-2.48056 0.0639,-5.70556 -0.125,-11.41944 0.0528,-17.11944 0.0833,-2.71389 -0.28611,-4.80556 -2.88611,-6.26111 -1.50556,-0.84167 -2.69722,-2.23889 -4.04444,-3.37222 -0.10833,-0.0889 -0.31389,-0.0611 -0.54167,-0.1 -0.03611,0.33333 -0.09444,0.61389 -0.09444,0.89722 -0.01111,10.35556 -0.0083,20.71389 -0.04167,31.06944 -0.0056,1.00556 0.52222,1.46111 1.28889,1.88333 3.86111,2.125 7.73889,4.22778 11.56111,6.41944 15.10278,8.65556 30.39444,16.975 45.35,25.88055 1.04722,0.625 1.94444,0.675 3.06111,0.0222 3.58056,-2.09722 7.23333,-4.06111 10.85,-6.09167 14.81111,-8.31667 29.583332,-16.7 44.458332,-24.89722 2.43056,-1.34167 3.31111,-2.79167 3.26111,-5.58333 -0.175,-9.70278 -0.0333,-19.40833 -0.0139,-29.11667 0.0167,-0.0417 0.0361,-0.0861 0.0528,-0.13056 l -0.0611,0.125 z m 11.20278,-4.70278 c -0.003,12.47222 -0.0139,24.94444 0.003,37.41667 0.006,4.42222 -1.71944,7.88889 -5.60278,10.09444 -8.06667,4.58611 -16.17222,9.10833 -24.26111,13.65833 -10.90278,6.13333 -21.827782,12.225 -32.694442,18.41944 -3.58056,2.04167 -7.20833,3.40278 -11.40556,2.53889 -1.65556,-0.34167 -3.05833,-1.19167 -4.48333,-1.99444 -19.49444,-10.99167 -38.96944,-22.01667 -58.4749995,-32.98611 -3.88056,-2.18056 -5.67778003,-5.44167 -5.67500003,-9.79722 0.01111,-24.59167 0.09167,-49.18055 -0.0166699979,-73.77222 C -0.02203153,172.69713 1.9196285,169.29713 6.2751885,166.86935 21.411298,158.43602 36.483518,149.8888 51.577968,141.38324 c 4.2,-2.36667 8.38333,-4.75556 12.59167,-7.10278 4.51389,-2.51944 8.97778,-2.50556 13.53611,0.0639 19.55,11.02222 39.119442,22.00833 58.719442,32.94722 4.25833,2.37778 6.33611,5.65833 6.25278,10.69722 -0.2,12.05556 -0.0639,24.11944 -0.0667,36.17778" />
  <path
     id="svg_189"
     fill="#05080c"
     d="m 86.933238,81.471911 h -0.0333 c 0,11.76667 0.0111,23.533329 -0.0194,35.297219 0,0.98611 0.22222,1.58056 1.18333,2.05 2.05556,1.00833 4.03333,2.17222 6.03611,3.28889 16.630552,9.27222 33.280552,18.51389 49.866662,27.86389 1.98333,1.11944 3.48611,1.09722 5.45278,-0.008 18.43333,-10.38333 36.91111,-20.69167 55.41111,-30.95833 1.21944,-0.675 1.42222,-1.49444 1.41944,-2.68889 -0.0167,-23.238889 -0.0194,-46.474999 0.0167,-69.713889 0,-1.175 -0.41389,-1.77778 -1.40833,-2.32778 -18.62222,-10.29722 -37.23889,-20.6 -55.80278,-31.00278 -1.91111,-1.06944 -3.25556,-1.06667 -5.18889,0.01667 -18.40833,10.31389 -36.88333,20.51667 -55.372222,30.68611 -1.22222,0.67222 -1.59444,1.39722 -1.58889,2.72778 0.0472,11.58889 0.0278,23.18055 0.0278,34.76944 m -11.72222,-0.11944 c 0,-12.41389 0.0528,-24.82778 -0.0278,-37.23889 -0.025,-4.21944 1.73333,-7.08333 5.42778,-9.08333 8.10833,-4.38611 16.14444,-8.91111 24.197222,-13.40278 11.85,-6.60833 23.70555,-13.1999998 35.51389,-19.8777798 4.11389,-2.32499996 8.04167,-2.33332996 12.15833,-0.025 19.37222,10.8638898 38.77778,21.6694398 58.16944,32.4972198 0.92222,0.51667 1.83333,1.04722 2.74167,1.58889 2.93056,1.75 4.33056,4.36944 4.33333,7.75 0.0194,25.00278 0,50.00555 0.075,75.008329 0.0139,4.45 -1.69722,7.50833 -5.65278,9.69444 -18.3,10.11944 -36.52222,20.37778 -54.775,30.58333 -2.05278,1.14722 -4.08333,2.33611 -6.175,3.40278 -3.03611,1.55 -6.18611,1.45 -9.13333,-0.0861 -11.93056,-6.22222 -23.5,-13.09444 -35.24444,-19.65278 -8.563892,-4.78056 -17.083332,-9.65556 -25.752782,-14.24167 -4.125,-2.18333 -5.94167,-5.18889 -5.88333,-9.85556 0.15278,-12.35278 0.0528,-24.708329 0.0528,-37.061109 h -0.025 z" />
  <path
     id="svg_190"
     fill="#05080c"
     d="m 281.0247,214.73471 h 0.0222 c 0,-11.58889 -0.0333,-23.175 0.0361,-34.76111 0.0111,-1.625 -0.41944,-2.71667 -1.925,-3.31111 -2.23056,-0.88056 -4.04167,-2.46111 -6.1,-3.62222 -12.36111,-6.97778 -24.475,-14.39167 -37.03889,-21.01667 -3.77222,-1.98889 -7.37222,-4.30278 -11.06944,-6.43889 -2.10556,-1.21389 -3.53889,-1.65556 -5.92222,-0.1 -5.13333,3.35556 -10.69444,6.05 -16.03889,9.08611 -13.33889,7.58056 -26.64722,15.20833 -39.98333,22.79167 -1.01944,0.57778 -1.475,1.21389 -1.46944,2.475 0.0528,23.35278 0.0556,46.70278 0.0333,70.05555 0,1.26944 0.39444,2.01111 1.54444,2.63889 5.96944,3.26389 11.87778,6.63333 17.82222,9.94167 13.19444,7.34722 26.4,14.68055 39.59444,22.03055 0.85556,0.475 1.525,0.69167 2.53889,0.11111 18.70555,-10.73889 37.43611,-21.43333 56.19444,-32.08333 1.29167,-0.73611 1.79722,-1.55 1.79167,-3.03611 -0.0556,-11.58611 -0.0306,-23.175 -0.0306,-34.76111 m 11.63889,-0.45278 c 0,12.475 0.006,24.95 -0.003,37.425 -0.003,4.05833 -1.525,7.23611 -5.19444,9.32222 -15.06667,8.56667 -30.09722,17.19444 -45.15,25.78889 -4.69444,2.67778 -9.41667,5.31111 -14.11944,7.98056 -4.25,2.41111 -8.60833,2.4 -12.78333,0.0917 -19.94444,-11.04167 -39.80833,-22.225 -59.75833,-33.25555 -4.24722,-2.34722 -5.80278,-5.91667 -5.80833,-10.45833 -0.0167,-14.65278 -0.0139,-29.30278 -0.0139,-43.95555 0.003,-9.825 0.0972,-19.65278 -0.0167,-29.48055 -0.0528,-4.49167 1.76944,-7.58056 5.66667,-9.74167 12.07222,-6.70278 24.1,-13.48889 36.13333,-20.26389 7.78333,-4.38056 15.55278,-8.78889 23.31389,-13.20833 3.12222,-1.78056 6.4,-2.54722 9.98056,-1.9 1.60278,0.29167 2.98056,1.07222 4.35278,1.85278 15.56667,8.88056 31.11944,17.78333 46.67778,26.68055 3.825,2.18889 7.65833,4.35833 11.46667,6.57222 3.48333,2.02778 5.25556,5.00556 5.23611,9.12778 -0.0556,12.475 -0.0194,24.95 -0.0194,37.42222 h 0.0389 z" />
  <path
     id="svg_191"
     fill="#f0d73b"
     d="m 131.41719,218.87611 c -0.0222,9.70556 -0.16111,19.41389 0.0139,29.11667 0.05,2.79167 -0.83056,4.24167 -3.26389,5.58056 -14.87222,8.2 -29.647222,16.58055 -44.455552,24.89722 -3.61667,2.03056 -7.26944,3.99722 -10.85,6.09167 -1.11667,0.65556 -2.01389,0.60278 -3.06111,-0.0194 -14.95833,-8.90556 -30.24722,-17.22778 -45.35,-25.88055 -3.825,-2.19167 -7.7,-4.29444 -11.56111,-6.41944 -0.76667,-0.42222 -1.29444,-0.87778 -1.29167,-1.88611 0.03611,-10.35556 0.03056,-20.71111 0.04444,-31.06667 0,-0.28333 0.05833,-0.56667 0.09444,-0.89722 0.225,0.0361 0.43333,0.008 0.54167,0.1 1.34444,1.13056 2.53889,2.52778 4.04167,3.36944 2.60278,1.45556 2.97222,3.55 2.88889,6.26111 -0.17778,5.70278 0.0111,11.41389 -0.0528,17.11944 -0.0139,1.25556 0.45833,1.89722 1.48333,2.48056 16.55555,9.41389 33.1,18.85 49.63055,28.30555 0.80278,0.46111 1.41111,0.51944 2.25556,0.0417 16.38055,-9.26944 32.769442,-18.52222 49.188892,-27.71944 1.57778,-0.88611 2.17222,-1.93056 2.14722,-3.76111 -0.0861,-6.11667 0.0583,-12.23889 0.025,-18.35833 -0.006,-1.31944 0.30833,-2.20278 1.525,-2.84722 2.23333,-1.175 3.85833,-3.19444 5.99722,-4.51667 l 0.008,0.008 z" />
  <path
     id="svg_192"
     fill="#f0d73b"
     d="m 131.14575,199.29332 c -2.24444,-1.41944 -4.45556,-2.83056 -6.68056,-4.21389 -0.625,-0.38889 -0.56944,-0.98611 -0.58056,-1.56111 -0.0528,-3 -0.15,-6 -0.10278,-8.99722 0.025,-1.48889 -0.36389,-2.31944 -1.81111,-3.11944 -10.23056,-5.675 -20.36944,-11.51389 -30.544442,-17.28333 -6.34167,-3.59444 -12.70556,-7.14722 -19.03889,-10.75 -0.89444,-0.50833 -1.61944,-0.63889 -2.59167,-0.0889 -16.27778,9.225 -32.56667,18.43333 -48.88611,27.58333 -1.29167,0.725 -1.83889,1.47778 -1.78333,2.99167 0.11944,3.40833 0.006,6.825 0.0361,10.23889 0.0111,0.97222 -0.23333,1.58333 -1.19167,2.07222 -2.19167,1.12222 -4.18333,2.57778 -5.93889,4.26944 -0.68889,-0.34167 -0.47778,-0.87222 -0.48056,-1.29167 -0.02222,-6.70556 0.025,-13.41389 -0.06944,-20.12222 -0.01944,-1.38333 0.78056,-1.84167 1.69444,-2.36111 11.79722,-6.73333 23.59444,-13.45833 35.39722,-20.18055 6.58611,-3.75278 13.18889,-7.48056 19.76389,-11.25833 1.76944,-1.01944 3.24167,-1.20278 5.22778,-0.0639 18.21111,10.42778 36.480552,20.75278 54.794442,30.99444 2.27222,1.26944 3.22222,2.62778 3.09444,5.31667 -0.25278,5.34167 -0.0639,10.70556 -0.075,16.05833 -0.003,0.55833 0.17222,1.15278 -0.23333,1.76667" />
  <path
     id="svg_193"
     fill="#fdfef9"
     d="m 112.47359,197.95521 c 2.96389,-0.0917 5.68056,0.11667 8.29444,1.2 4.14722,1.71944 6.76111,4.6 7.14444,9.2 0.38056,4.55278 -1.52222,8.16111 -5.34167,10.37778 -8.96667,5.2 -18.34722,5.575 -27.905552,1.61111 -4.11944,-1.70833 -7.78056,-4.10278 -10.91944,-7.28056 -0.36111,-0.36389 -0.95833,-0.76111 -0.75556,-1.27778 0.21667,-0.55278 0.93056,-0.32222 1.41944,-0.31944 7.125,0.075 14.20556,0.41667 20.977782,3.01389 1.28889,0.49167 2.71667,0.66944 3.53889,-0.90833 0.66944,-1.28056 0.0861,-2.6 -1.64444,-3.57778 -3.63333,-2.05 -7.583332,-3.08889 -11.708332,-3.53056 -2.98333,-0.32222 -5.97222,-0.5 -8.97222,-0.43889 -1.36944,0.0306 -1.11389,-0.60556 -0.66667,-1.40556 0.37222,-0.66111 1.01667,-0.95556 1.63611,-1.28611 5.65278,-2.99444 11.79444,-4.21944 18.063892,-4.97222 2.33333,-0.28056 4.66944,-0.56111 6.83889,-0.40556" />
  <path
     id="svg_194"
     fill="#fdfef9"
     d="m 61.216598,211.64108 c -2.09444,3.11389 -5.00556,4.875 -7.92222,6.61944 -5.31667,3.18056 -11.11111,4.94722 -17.27778,4.68333 -5.11111,-0.21667 -10.11389,-1.36111 -14.49722,-4.31667 -4.14167,-2.79167 -6.10833,-7.31111 -5.11389,-11.82778 0.90278,-4.11111 4.85278,-7.63611 9.44722,-8.45556 6.25,-1.11389 12.39167,-0.22778 18.50833,1.00556 3.63333,0.73056 7.17222,1.78056 10.52778,3.39444 0.86389,0.41667 1.65833,0.91111 2.21944,1.68056 0.29444,0.4 0.75833,0.88889 0.45,1.41944 -0.27222,0.475 -0.86111,0.19167 -1.29722,0.18889 -4.65556,-0.0278 -9.26389,0.33333 -13.77222,1.59722 -1.81389,0.51111 -3.56667,1.175 -5.23056,2.06389 -0.50833,0.275 -1.01667,0.60833 -1.41944,1.01667 -0.84444,0.85278 -1.30278,1.91111 -0.64444,3.03056 0.7,1.19444 1.85278,1.35833 3.08333,0.86389 7.14167,-2.87222 14.65278,-3.09167 22.19167,-3.10833 0.15833,0 0.31944,0.0583 0.74722,0.14444" />
  <path
     id="svg_195"
     fill="#fdfef9"
     d="m 61.861018,199.75659 c 0.0472,-5.23889 4.52222,-9.41389 10.06667,-9.38889 4.96667,0.0222 9.40833,4.45556 9.36111,9.33889 -0.05,5.325 -4.46944,9.58333 -9.91944,9.55556 -5.29722,-0.0278 -9.55556,-4.28611 -9.50833,-9.50556" />
  <path
     id="svg_196"
     fill="#f0d73b"
     d="m 71.557478,232.80383 c -4.525,0 -9.05278,-0.0389 -13.575,0.0222 -1.45278,0.0194 -1.55278,-0.40556 -0.97778,-1.60833 1.92778,-4.02778 1.89444,-4.04167 6.35556,-4.05 6.46389,-0.0111 12.92778,0.008 19.39444,-0.0694 1.24444,-0.0139 1.99722,0.325 2.40556,1.50833 0.20833,0.60556 0.56389,1.15833 0.85556,1.73611 1.24722,2.44167 1.24722,2.45833 -1.58611,2.46944 -4.29167,0.0139 -8.58056,0.003 -12.87222,0.003 v -0.0111 z" />
  <path
     id="svg_197"
     fill="#fdfef9"
     d="m 54.531718,223.96026 c -1.38889,2.31389 -1.20278,5.11111 -3.89722,6.29167 -0.72778,0.31667 -0.46111,1.14167 -0.46667,1.75556 -0.025,4.40556 -0.0639,8.81111 -0.006,13.21389 0.0167,1.17778 -0.31944,1.96389 -1.26389,2.67778 -1.49167,1.13056 -2.89167,2.39167 -4.29167,3.63889 -0.86944,0.77222 -1.725,1.02778 -2.60556,0.11389 -0.88056,-0.91111 -1.10833,-1.925 -0.19444,-2.96944 0.38611,-0.44167 0.74722,-0.95278 1.23056,-1.25 2.51944,-1.54722 3.04167,-3.80833 2.87778,-6.60833 -0.20833,-3.56944 -0.008,-7.16389 -0.05,-10.74444 -0.0111,-0.98056 0.30556,-1.63333 1.08333,-2.225 2.19167,-1.66389 4.46111,-3.14444 7.58333,-3.89444" />
  <path
     id="svg_198"
     fill="#f0d73b"
     d="m 71.647508,238.23833 c 4.05278,-0.003 8.10833,0.0417 12.16111,-0.025 1.49167,-0.025 1.43056,0.35833 0.90278,1.56667 -1.22778,2.81944 -2.93056,4.11667 -6.28611,3.86667 -5.08056,-0.38056 -10.21667,-0.20278 -15.32222,-0.0444 -1.82778,0.0556 -2.86944,-0.58333 -3.57222,-2.11944 -0.45556,-0.99722 -1.69167,-2.03611 -1.23611,-2.93333 0.39444,-0.775 1.92778,-0.28611 2.95278,-0.29444 3.46667,-0.0361 6.93333,-0.0139 10.4,-0.0167" />
  <path
     id="svg_199"
     fill="#fdfef9"
     d="m 89.354648,223.62889 c 3,0.73611 5.225,2.41667 7.34444,4.28611 0.56389,0.5 0.47222,1.15833 0.475,1.8 0.008,4.28611 0.0694,8.57222 -0.006,12.85833 -0.025,1.41389 0.31389,2.45556 1.47222,3.32222 1.02778,0.77222 1.930562,1.71389 2.866672,2.60278 1.13056,1.07222 0.70556,2.13056 -0.16111,3.07222 -0.85,0.925 -1.769442,0.71111 -2.633332,-0.0556 -0.0861,-0.0778 -0.16944,-0.16944 -0.26944,-0.22778 -4.39722,-2.59444 -6.11944,-6.35833 -5.29444,-11.43611 0.29722,-1.82778 0.0472,-3.75 0.0306,-5.62778 -0.0167,-1.92778 0.38056,-3.88611 -1.74722,-5.25556 -1.04444,-0.66944 -1.73889,-3.28611 -2.07778,-5.33889" />
  <path
     id="svg_200"
     fill="#fdfef9"
     d="m 86.144358,195.92639 c -0.275,-0.84722 0.0639,-1.46944 0.86667,-1.98889 2.63889,-1.70556 4.74167,-3.90556 6.43333,-6.59167 1.09444,-1.73611 2.93056,-2.84444 4.6,-4.04167 0.8,-0.57222 1.71111,-0.26111 2.566672,-0.3 1.28611,-0.0556 2.58056,0.0111 3.86944,0.0111 1.16667,0.003 1.93889,0.38889 1.85556,1.73611 -0.0778,1.26389 -0.3,2.38611 -1.94167,2.34444 -0.11667,-0.003 -0.23889,0.025 -0.35278,0 -4.01944,-0.86667 -6.622222,1.23056 -8.500002,4.35556 -1.74444,2.90278 -4.14444,4.75 -7.28056,5.89722 -2.05278,0.74722 -2,0.88611 -2.11667,-1.42222" />
  <path
     id="svg_201"
     fill="#fdfef9"
     d="m 42.419458,183.02389 c 3.40278,-0.92222 5.58611,1.58611 7.56667,4.15556 1.87222,2.425 3.63611,4.88611 6.32222,6.50278 0.53611,0.32222 1.13889,0.70833 1.20556,1.43056 0.0722,0.825 0.0361,1.78333 -0.47778,2.34722 -0.55556,0.60556 -1.24722,-0.23889 -1.89722,-0.38056 -3.97222,-0.86944 -6.08889,-3.97778 -8.10556,-7.02778 -1.54167,-2.32778 -3.38889,-3.33611 -6.13056,-2.98889 -1.31944,0.16667 -2.73611,0.29167 -3.31389,-1.46944 -0.51389,-1.57222 0.0778,-2.53056 1.725,-2.56667 0.88056,-0.0194 1.76111,-0.003 3.10556,-0.003" />
  <path
     id="svg_202"
     fill="#f0d73b"
     d="m 60.708648,221.67772 c 1.13611,-1.81389 2.03611,-3.24722 2.93333,-4.68056 0.33333,-0.53056 0.85556,-0.54167 1.39722,-0.53889 4.52778,0.003 9.05833,0.0361 13.58333,-0.0306 1.25278,-0.0167 1.78333,0.69722 2.25278,1.61111 0.58056,1.13611 2.13333,2.35556 1.63333,3.29444 -0.5,0.93333 -2.35556,0.30833 -3.61111,0.31944 -5.29167,0.0444 -10.58611,0.0222 -15.87778,0.025 -0.63333,0 -1.26667,0 -2.31111,0" />
  <path
     id="svg_203"
     fill="#fdfef9"
     d="m 56.951598,179.98942 c -0.0722,-1.16389 0.33333,-1.8 1.23056,-2.10556 2.24167,-0.75833 5.36389,0.16111 6.80278,2.05833 1.06389,1.4 1.90278,2.94167 2.66667,4.53056 0.34167,0.71111 0.29722,1.05 -0.49722,1.25556 -3.08889,0.79722 -2.66667,1.20556 -4.13611,-1.41667 -0.85,-1.51944 -1.81944,-2.64444 -3.84722,-2.31111 -1.59167,0.26111 -2.45,-0.52778 -2.21944,-2.01111" />
  <path
     id="svg_204"
     fill="#fdfef9"
     d="m 82.934768,177.79666 c 3.03889,-0.0472 3.85556,0.73889 3.51389,3.02222 -0.12222,0.83056 -0.56667,1.40833 -1.375,1.22778 -2.69444,-0.6 -3.87778,1.21111 -5.12222,3.01389 -0.75278,1.09167 -2.91389,1.29722 -3.88889,0.425 -0.27222,-0.24444 -0.25556,-0.47222 -0.11389,-0.76389 0.98889,-2.05 1.91667,-4.15278 3.575,-5.76667 1.01111,-0.98611 2.29722,-1.38056 3.41111,-1.15833" />
  <path
     id="svg_205"
     fill="#f0d73b"
     d="m 71.733628,258.27778 c -1.36389,-3.04722 -2.475,-5.56667 -3.62222,-8.07222 -0.40278,-0.88333 -0.26389,-1.32778 0.79167,-1.31667 1.93889,0.0167 3.87778,-0.006 5.81667,0.006 0.46944,0.003 1.04722,-0.0194 0.71389,0.75833 -1.16944,2.72778 -2.33889,5.45556 -3.7,8.625" />
  <path
     id="svg_206"
     fill="#f0d73b"
     d="m 131.40939,218.86857 0.0611,-0.125 c -0.0194,0.0444 -0.0361,0.0889 -0.0528,0.13333 z" />
  <path
     id="svg_207"
     fill="#f0d73b"
     d="m 198.66487,81.509381 c -0.008,0 -0.0139,0 -0.0222,0 0,-10.175 -0.0222,-20.35 0.0278,-30.52778 0.006,-1.18056 -0.41389,-1.80278 -1.40833,-2.33333 -3.525,-1.87778 -7.01667,-3.81944 -10.51111,-5.75278 -13.06389,-7.225 -26.125,-14.45 -39.17222,-21.69722 -0.88333,-0.48889 -1.58889,-0.46389 -2.44444,0.06389 -1.84167,1.13333 -3.725,2.2 -5.61944,3.24722 -10.44167,5.76944 -20.88889,11.53333 -31.34444,17.27778 -4.06667,2.23333 -8.125,4.49167 -12.277782,6.55833 -1.18333,0.58889 -1.63889,1.16944 -1.63889,2.45 0.0361,20.35278 0.0389,40.70278 0.0222,61.055549 0,1.10833 0.29444,1.75556 1.33333,2.35 16.533332,9.44722 33.180552,18.69444 49.827782,27.93611 0.84444,0.46667 1.45556,0.43889 2.25556,-0.0111 3.32778,-1.86944 6.70556,-3.65833 10.03611,-5.525 12.97222,-7.27222 25.92222,-14.58333 38.91667,-21.81667 1.53333,-0.85556 2.07222,-1.88056 2.05833,-3.63056 -0.0806,-9.88056 -0.0389,-19.763889 -0.0389,-29.644439 m -111.730552,-0.0389 c 0,-11.58889 0.0194,-23.17778 -0.0278,-34.76667 -0.006,-1.33333 0.36667,-2.05556 1.58889,-2.72778 18.488892,-10.17222 36.961112,-20.37222 55.372222,-30.68889 1.93333,-1.08333 3.27778,-1.08611 5.18889,-0.01389 18.56111,10.4 37.18055,20.70278 55.8,31.00278 0.99722,0.55 1.41111,1.15278 1.40833,2.325 -0.0333,23.23889 -0.0306,46.47778 -0.0139,69.716659 0,1.19444 -0.2,2.01111 -1.42222,2.68889 -18.5,10.26667 -36.97778,20.57222 -55.41111,30.95833 -1.96389,1.10556 -3.46667,1.125 -5.45,0.006 -16.58889,-9.35 -33.23611,-18.59167 -49.866662,-27.86389 -2.00278,-1.11389 -3.98333,-2.28056 -6.03889,-3.28611 -0.95833,-0.46944 -1.18333,-1.06389 -1.18056,-2.05 0.0278,-11.76667 0.0194,-23.533329 0.0194,-35.299999 h 0.0333 z" />
  <path
     id="svg_208"
     fill="#f0d73b"
     d="m 273.33461,214.50549 c 0,-10.11944 -0.05,-20.24167 0.0472,-30.36111 0.0167,-1.73889 -0.61389,-2.62778 -2.03889,-3.41389 -4.94167,-2.725 -9.83611,-5.53333 -14.73889,-8.33056 -11.18056,-6.38333 -22.35833,-12.76667 -33.52222,-19.18055 -0.82778,-0.475 -1.45278,-0.44167 -2.26111,0.0333 -2.69167,1.58889 -5.41111,3.13611 -8.15278,4.63611 -14.18056,7.76944 -28.07778,16.03611 -42.14444,24.00833 -0.89444,0.50556 -1.39444,1.04167 -1.39444,2.17778 0.0139,20.53333 -0.0139,41.06667 -0.0472,61.6 0,0.75278 0.16111,1.28889 0.825,1.78611 3.64167,2.73889 7.74722,4.7 11.66944,6.95278 6.80833,3.91389 13.70278,7.67778 20.65555,11.33889 6.24167,3.28333 12.37222,6.775 18.53611,10.20556 0.69444,0.38611 1.24167,0.425 1.94444,0.0111 1.81111,-1.06389 3.68333,-2.025 5.50556,-3.07222 14.43056,-8.28056 28.85,-16.58333 43.29444,-24.83889 1.31667,-0.75278 1.87778,-1.60556 1.86667,-3.19167 -0.0778,-10.11944 -0.0389,-20.24167 -0.0444,-30.36111 m 7.68889,0.23056 c 0,11.58611 -0.0222,23.175 0.0306,34.76111 0.006,1.48611 -0.49722,2.3 -1.79167,3.03333 -18.75555,10.65278 -37.48889,21.34722 -56.19444,32.08333 -1.01389,0.58333 -1.68333,0.36667 -2.53611,-0.10833 -13.19444,-7.35278 -26.4,-14.68333 -39.59722,-22.03055 -5.94167,-3.31111 -11.85278,-6.68056 -17.81944,-9.94167 -1.15,-0.63056 -1.54722,-1.37222 -1.54444,-2.64167 0.0222,-23.35 0.0194,-46.70278 -0.0361,-70.05278 -0.003,-1.26389 0.45278,-1.89722 1.46944,-2.47778 13.33611,-7.58056 26.64722,-15.20833 39.98333,-22.78889 5.34444,-3.03889 10.90556,-5.73333 16.03889,-9.08611 2.38611,-1.55556 3.81944,-1.11667 5.92222,0.1 3.69722,2.13611 7.29722,4.45 11.06944,6.43889 12.56389,6.625 24.67778,14.03889 37.04167,21.01667 2.05833,1.16111 3.86944,2.74167 6.09722,3.61944 1.50833,0.59444 1.93611,1.68611 1.925,3.31111 -0.0694,11.58611 -0.0361,23.175 -0.0361,34.76389 h -0.0222 z" />
  <path
     id="svg_209"
     fill="#05080c"
     d="m 147.18393,95.881891 c -5.52778,0 -11.05833,0.0389 -16.58611,-0.0306 -1.175,-0.0139 -1.51111,0.43889 -1.28611,1.41667 0.19444,0.83056 -0.825,2.27778 1.17222,2.27222 11.11667,-0.0306 22.23611,-0.0417 33.35278,-0.008 1.81389,0.006 1.28611,-1.23056 1.39722,-2.18889 0.12778,-1.11944 -0.25556,-1.50833 -1.46389,-1.49167 -5.52778,0.0722 -11.05556,0.0333 -16.58611,0.0306 m -0.05,17.952779 v 0.0306 c 5.525,0 11.05,-0.0611 16.57222,0.0389 1.45556,0.025 1.60833,-0.55 1.58333,-1.73611 -0.0222,-1.11389 -0.0333,-1.78333 -1.54167,-1.77222 -10.98889,0.0667 -21.97778,0.075 -32.96667,-0.025 -1.70556,-0.0139 -1.50278,0.80556 -1.55278,1.90278 -0.0556,1.16944 0.225,1.60833 1.51111,1.59167 5.46389,-0.075 10.93056,-0.0306 16.39444,-0.0306 m 2.72222,-70.033329 v 0.0083 c -5.64722,0 -11.29722,0.05 -16.94167,-0.03611 -1.50556,-0.02222 -1.99722,0.29444 -1.975,1.92222 0.1,7.82222 0.0583,15.64722 0.0444,23.47222 -0.003,2.44444 0.48611,3.01667 2.94444,3.01944 10.70833,0.0056 21.41389,-0.0056 32.12222,-0.02222 1.86944,-0.0028 2.4,-0.54444 2.40278,-2.41667 0.0111,-8.11944 -0.0278,-16.23889 0.0472,-24.35555 0.0139,-1.39722 -0.44722,-1.63056 -1.70278,-1.61667 -5.64444,0.06111 -11.29444,0.025 -16.94167,0.025 m 24.03333,0.89167 c -0.45556,0.60833 -0.34167,1.10278 -0.34444,1.55556 -0.0556,7.93889 -0.0611,15.88055 -0.15556,23.82222 -0.0472,4.04167 -2.66389,6.58333 -6.69722,6.59444 -11.41389,0.0278 -22.825,0.0361 -34.23889,0.0306 -4.10278,-0.003 -6.575,-2.49444 -6.58611,-6.575 -0.0222,-8.29444 -0.0528,-16.58611 -0.0278,-24.88055 0.003,-1.06389 -0.26944,-1.475 -1.36389,-1.44167 -2.11667,0.06389 -4.23333,0.03056 -6.35278,0.03333 -3.41389,0.0056 -3.74722,0.33056 -3.74722,3.7 -0.003,21.11944 0,42.23889 0,63.355549 0,1.825 0.003,3.64722 0.0167,5.47222 0.0111,1.38333 0.54444,2.21667 2.10556,2.17222 1.64444,-0.0472 3.29167,0.0472 4.93889,0.0528 2.67222,0.006 2.25278,0.2 2.26111,-2.24167 0.025,-9.06111 0.0833,-18.119439 -0.0167,-27.177779 -0.0389,-3.47778 2.82778,-6.725 6.60833,-6.66389 11.52778,0.18611 23.05833,0.0417 34.58889,0.0361 3.86389,-0.003 5.975,2.11111 5.99722,6.01389 0.025,4.11944 0.0222,8.23611 0.0194,12.355559 -0.003,5.35278 -0.008,10.70556 -0.0333,16.05833 -0.003,0.95556 -0.025,1.725 1.35,1.64444 1.81667,-0.10556 3.64444,0.0111 5.46944,0.003 1.16667,-0.006 1.87778,-0.61944 2.05278,-1.77222 0.11389,-0.75278 0.21111,-1.51944 0.21111,-2.27778 0.0444,-20.116669 0.0667,-40.236109 0.12778,-60.352779 0.006,-1.74444 -0.55556,-3.24167 -1.56667,-4.57778 -1.34444,-1.775 -2.91667,-3.34722 -4.61667,-4.93889 m 24.775,36.81667 c 0,9.88056 -0.0417,19.763889 0.0389,29.644439 0.0167,1.75 -0.525,2.775 -2.05833,3.62778 -12.99444,7.23611 -25.94444,14.54722 -38.91667,21.81944 -3.33056,1.86667 -6.70556,3.65556 -10.03611,5.525 -0.8,0.45 -1.41111,0.47778 -2.25278,0.0111 -16.65,-9.24167 -33.29722,-18.48889 -49.830552,-27.93611 -1.03889,-0.59444 -1.33333,-1.24167 -1.33333,-2.35 0.0194,-20.352779 0.0139,-40.702779 -0.0194,-61.055549 -0.003,-1.28333 0.45556,-1.86111 1.63611,-2.45 4.152782,-2.06667 8.211112,-4.325 12.277782,-6.55833 10.45833,-5.74444 20.90278,-11.51111 31.34444,-17.27778 1.89444,-1.04722 3.77778,-2.11389 5.61944,-3.24722 0.85556,-0.52778 1.56111,-0.55278 2.44444,-0.06389 13.05,7.24722 26.11111,14.47222 39.17222,21.69722 3.49444,1.93333 6.98611,3.875 10.51111,5.75278 0.99444,0.53056 1.41389,1.15278 1.40833,2.33333 -0.05,10.175 -0.0278,20.35278 -0.0278,30.52778 0.008,0 0.0139,0 0.0222,0" />
  <path
     id="svg_210"
     fill="#05080c"
     d="m 209.82161,173.16688 c -0.175,-0.22222 -0.34722,-0.44444 -0.52222,-0.66667 -5.73611,1.64722 -10.90833,4.33889 -15.30278,8.48056 -0.775,0.73333 -0.40278,1.2 0.34167,1.61111 1.43611,0.79444 2.89722,1.54722 4.28889,2.41667 1.01111,0.63056 1.54167,0.34444 2.07778,-0.61667 1.78056,-3.18056 3.775,-6.225 6.33333,-8.84444 0.85,-0.86944 1.85278,-1.59167 2.78333,-2.38056 m 22.61389,-0.44167 c -0.0194,0.0778 -0.0639,0.16667 -0.0417,0.18889 3.46944,3.66667 6.71389,7.50556 9.11667,11.98056 0.34722,0.64722 0.79167,0.54444 1.31944,0.25556 1.18889,-0.64444 2.40556,-1.23333 3.58056,-1.90278 2.78889,-1.59167 2.83611,-1.74722 0.39722,-3.72778 -3.83056,-3.10833 -8.20556,-5.22222 -12.88889,-6.71111 -0.47222,-0.15 -0.97778,-0.43889 -1.48333,-0.0833 m -22.65278,82.94722 c -3.74167,-3.65 -6.86389,-7.43611 -9.24167,-11.78889 -0.48056,-0.875 -1.04444,-0.94722 -1.85278,-0.54722 -1.31111,0.65278 -2.66111,1.23611 -3.95833,1.91667 -1.98611,1.04167 -2.04722,1.33056 -0.38056,2.81667 3.68333,3.28889 7.93889,5.60833 12.6,7.19444 0.81111,0.275 1.61389,0.68333 2.83333,0.40833 m 22.51944,0.0944 c 6.03056,-1.16944 11.16389,-3.95 15.65833,-7.975 0.97222,-0.86944 0.875,-1.54722 -0.20833,-2.175 -0.91389,-0.52778 -1.80833,-1.1 -2.74722,-1.58056 -2.87778,-1.46944 -2.88333,-1.45556 -4.65,1.29722 -0.18889,0.29722 -0.4,0.58056 -0.59167,0.875 -2.18056,3.41389 -4.75278,6.51667 -7.46111,9.55833 m -26.38611,-14.88333 c 3.00278,4.85278 6.21111,9.16667 11.80833,11.54722 0,-4.31389 -0.006,-8.35833 0.006,-12.40556 0,-0.675 -0.275,-0.96111 -0.96111,-0.9 -3.56389,0.31111 -7.15,0.50278 -10.85278,1.75833 m 18.075,4.68056 c 0,1.52778 -0.008,3.05833 0.003,4.58611 0.0167,2.26944 0.35556,2.51944 2.21944,1.33889 3.91667,-2.47778 6.69722,-6.02778 9.06944,-9.93333 0.32222,-0.52778 0.27222,-0.83889 -0.36944,-1.01111 -3.18889,-0.84722 -6.39722,-1.54167 -9.725,-1.54167 -0.925,0 -1.23333,0.37222 -1.21111,1.26667 0.0417,1.76389 0.0111,3.52778 0.0139,5.29444 m -6.31389,-62.775 h -0.025 c 0,-1.76389 0.0167,-3.52778 -0.006,-5.28889 -0.025,-1.73611 -0.26111,-1.86667 -1.76944,-0.96111 -3.98611,2.39722 -6.76389,5.925 -9.16389,9.80833 -0.625,1.01111 -0.38333,1.575 0.77778,1.89722 2.96111,0.82222 5.95556,1.3 9.03611,1.27778 0.97222,-0.008 1.18611,-0.40833 1.16389,-1.26944 -0.0417,-1.82222 -0.0139,-3.64444 -0.0139,-5.46389 m 6.375,-0.28056 h -0.0139 c 0,1.94167 0.003,3.88333 -0.003,5.825 -0.003,0.63056 0.0306,1.18056 0.89167,1.18611 3.31389,0.025 6.55278,-0.41944 9.70278,-1.47778 0.66389,-0.225 0.79444,-0.57778 0.45278,-1.18889 -2.41667,-4.32778 -5.475,-8.05833 -9.77222,-10.66111 -1.08333,-0.65556 -1.29167,-0.17778 -1.26944,0.84722 0.0361,1.82222 0.0111,3.64722 0.0111,5.46944 m -15.97222,35.29722 v -0.0111 c -2.70278,0 -5.40833,0.05 -8.10833,-0.025 -1.17778,-0.0306 -1.55556,0.35 -1.44444,1.51667 0.49444,5.12778 1.74167,10.03611 4.01389,14.68055 0.41667,0.85556 0.83333,1.09167 1.76111,0.82778 3.96667,-1.13333 8.03333,-1.73333 12.13889,-2.04444 0.98056,-0.075 1.29167,-0.37222 1.28056,-1.35278 -0.0444,-4.05278 -0.0583,-8.10833 0.0111,-12.16111 0.0194,-1.21667 -0.43889,-1.47778 -1.54444,-1.45278 -2.70278,0.0667 -5.40556,0.0222 -8.10833,0.0222 m 25.63333,-0.006 c -2.81944,0 -5.63889,0.0194 -8.45556,-0.0111 -0.77222,-0.008 -1.2,0.15 -1.19722,1.04444 0.006,4.28333 -0.0139,8.56944 -0.0583,12.85556 -0.008,0.76389 0.29167,1.04444 1.025,1.04722 4.26389,0.0139 8.38611,0.94444 12.46389,2.05278 1.07778,0.29444 1.48889,-0.0806 1.875,-0.93611 2.12222,-4.7 3.28889,-9.63333 3.71667,-14.76389 0.0861,-1.03056 -0.27222,-1.325 -1.26944,-1.30278 -2.7,0.0528 -5.4,0.0167 -8.1,0.0139 m -48.31111,-0.008 v -0.0139 c -1.87778,0 -3.75833,0.0194 -5.63611,-0.008 -0.83611,-0.0139 -1.29722,0.13056 -1.20278,1.16667 0.75,8.14444 3.49444,15.50833 8.47222,22.01944 0.54167,0.70833 1.02222,0.89722 1.91389,0.41667 2.31667,-1.25278 4.53333,-2.71389 7.04444,-3.58889 0.85833,-0.30278 0.98056,-0.79722 0.575,-1.61389 -2.68889,-5.44722 -3.88333,-11.28611 -4.35833,-17.29167 -0.0667,-0.84722 -0.37222,-1.11111 -1.17222,-1.09722 -1.87778,0.0333 -3.75833,0.0111 -5.63611,0.0111 m 22.61667,-6.41944 c 2.70278,0 5.40833,-0.0611 8.10833,0.025 1.26944,0.0389 1.58889,-0.43889 1.57222,-1.625 -0.0528,-3.93611 -0.14444,-7.88056 0.0472,-11.80833 0.0917,-1.90556 -0.70833,-2.26389 -2.28611,-2.31667 -3.88889,-0.13611 -7.73611,-0.59722 -11.38889,-2.03056 -1.11667,-0.43611 -1.28056,0.30556 -1.59722,1.00278 -2.21111,4.86389 -3.33056,9.98611 -3.825,15.28889 -0.11944,1.29167 0.34167,1.5 1.43889,1.48056 2.64167,-0.0472 5.28611,-0.0167 7.93056,-0.0167 m 25.49167,0.0278 c 2.75833,0 5.51667,-0.008 8.275,0.006 0.825,0.006 1.325,-0.16111 1.24167,-1.18333 -0.45833,-5.53611 -1.93056,-10.825 -3.85,-16.00833 -0.24167,-0.65 -0.58889,-0.8 -1.2,-0.58611 -4.08333,1.41667 -8.34167,1.875 -12.61111,2.19167 -1.24722,0.0917 -1.39722,0.64444 -1.38889,1.66389 0.0389,4.10833 0.0556,8.21667 0.008,12.325 -0.0139,1.2 0.33611,1.66389 1.6,1.62222 2.63889,-0.0861 5.28333,-0.025 7.925,-0.0306 m 23.24444,6.40833 c -1.93611,0 -3.875,0.0389 -5.81111,-0.0139 -1.00833,-0.0278 -1.43889,0.25833 -1.51667,1.36111 -0.40556,5.83611 -1.64444,11.48889 -4.11111,16.825 -0.41667,0.9 -0.22222,1.36111 0.65833,1.78889 2.37222,1.15833 4.76111,2.3 7.03056,3.63889 1.07222,0.63333 1.53333,0.28333 2.13889,-0.50833 2.51944,-3.28889 4.33611,-6.94722 5.85833,-10.78333 1.33056,-3.34722 1.86111,-6.87222 2.53611,-10.37222 0.25556,-1.32222 -0.0444,-2.1 -1.67778,-1.96389 -1.69167,0.13889 -3.40278,0.0306 -5.10556,0.0278 m -71.56111,-6.44167 v 0.0111 c 1.94167,0 3.88333,-0.0306 5.825,0.0139 0.86944,0.0194 1.25556,-0.23611 1.31389,-1.17222 0.39722,-6.15556 1.98889,-12.04167 4.20556,-17.76389 0.40833,-1.05 0.0861,-1.46111 -0.74444,-1.93056 -2.24722,-1.275 -4.49444,-2.56111 -6.68333,-3.93611 -0.825,-0.51667 -1.225,-0.24167 -1.74167,0.38056 -5.57222,6.7 -8.26667,14.50556 -8.96389,23.09722 -0.0833,1.03333 0.34444,1.34167 1.31944,1.31389 1.82222,-0.0472 3.64722,-0.0139 5.46944,-0.0139 m 71.28889,-0.006 v 0.008 c 1.76389,0 3.53056,-0.0583 5.28889,0.0167 1.30833,0.0556 1.86944,-0.23056 1.77222,-1.75 -0.56111,-8.61111 -3.89167,-16.11389 -8.90833,-22.98889 -0.53333,-0.73056 -0.96667,-0.59167 -1.59444,-0.17778 -2.35278,1.55278 -4.76667,3.00833 -7.35,4.14722 -0.76389,0.33889 -0.91667,0.73611 -0.61944,1.47778 2.325,5.80833 3.9,11.79722 4.28056,18.06389 0.0611,1.05 0.59167,1.23611 1.48889,1.21667 1.88056,-0.0444 3.76111,-0.0139 5.64167,-0.0139 m 16.85278,3.14444 c 0.003,10.11944 -0.0361,20.23889 0.0444,30.36111 0.0111,1.58611 -0.55278,2.43889 -1.86667,3.19167 -14.44444,8.25556 -28.86389,16.55833 -43.29444,24.83889 -1.82222,1.04722 -3.69444,2.00556 -5.50556,3.07222 -0.70556,0.41389 -1.25,0.375 -1.94444,-0.0111 -6.16389,-3.43056 -12.29722,-6.92222 -18.53611,-10.20556 -6.95278,-3.66111 -13.85,-7.425 -20.65555,-11.33889 -3.92222,-2.25556 -8.03056,-4.21389 -11.67222,-6.95278 -0.66111,-0.49722 -0.82222,-1.03333 -0.82222,-1.78611 0.0333,-20.53333 0.0611,-41.06667 0.0472,-61.6 0,-1.13611 0.5,-1.67222 1.39444,-2.17778 14.06667,-7.97222 27.96111,-16.24167 42.14444,-24.00833 2.74167,-1.5 5.46111,-3.04722 8.15278,-4.63611 0.80556,-0.475 1.43333,-0.50833 2.25833,-0.0333 11.16389,6.41389 22.34444,12.79722 33.525,19.18055 4.90278,2.79444 9.79722,5.60556 14.73889,8.33056 1.425,0.78611 2.05556,1.675 2.03889,3.41389 -0.0972,10.11944 -0.0472,20.24167 -0.0472,30.36111" />
  <path
     id="svg_211"
     fill="#f0d73b"
     d="m 173.08505,111.29495 c 0.0667,1.34722 0.75,2.23333 1.99444,2.30833 1.39167,0.0861 2.07222,-0.85556 2.15556,-2.20833 0.0833,-1.33611 -0.67778,-1.91667 -1.9,-1.96667 -1.30556,-0.05 -2.05,0.63056 -2.25,1.86667 m -53.35278,-1.93889 c -1.46667,0.0222 -2.32778,0.61944 -2.32222,1.975 0.006,1.325 0.68333,2.23056 2.10278,2.30278 1.175,0.0583 2.08889,-1.02778 2.05278,-2.33889 -0.0361,-1.29167 -0.775,-1.86667 -1.83333,-1.93889 m 0.625,-57.049999 c 1.45,-0.01667 2.49444,-1.01389 2.48889,-2.37778 -0.003,-1.40556 -1.13611,-2.41111 -2.675,-2.36944 -1.47222,0.03611 -2.28333,0.81667 -2.38056,2.25556 -0.0944,1.39722 1.1,2.50833 2.56667,2.49167 m 53.53055,-7.61389 c 1.7,1.59167 3.27222,3.16389 4.61944,4.94167 1.01111,1.33611 1.56944,2.83056 1.56389,4.575 -0.0583,20.11667 -0.0806,40.23611 -0.125,60.352779 -0.003,0.76111 -0.0972,1.525 -0.21111,2.27778 -0.175,1.15556 -0.88611,1.76667 -2.05556,1.77222 -1.82222,0.008 -3.65278,-0.10556 -5.46944,-0.003 -1.375,0.0806 -1.35278,-0.68889 -1.34722,-1.64444 0.025,-5.35278 0.0306,-10.70556 0.0333,-16.05833 0,-4.116669 0.003,-8.236109 -0.0194,-12.352779 -0.025,-3.90278 -2.13333,-6.01667 -5.99722,-6.01667 -11.53056,0.006 -23.06389,0.15278 -34.58889,-0.0361 -3.78056,-0.0611 -6.65,3.18611 -6.61111,6.66389 0.1,9.05833 0.0444,18.119439 0.0194,27.177779 -0.008,2.44444 0.41111,2.25 -2.26111,2.24167 -1.64722,-0.006 -3.29722,-0.1 -4.94167,-0.0528 -1.56111,0.0444 -2.09444,-0.78611 -2.10278,-2.17222 -0.0139,-1.82222 -0.0167,-3.64722 -0.0167,-5.46944 -0.003,-21.119439 -0.003,-42.238889 -0.003,-63.355549 0,-3.37222 0.33611,-3.69444 3.75,-3.70278 2.11667,-0.0028 4.23611,0.03333 6.35278,-0.03333 1.09444,-0.03333 1.36667,0.37778 1.36389,1.44167 -0.0278,8.29444 0.006,16.58889 0.0278,24.88333 0.0111,4.08056 2.48333,6.56944 6.58611,6.57222 11.41111,0.006 22.825,0 34.23611,-0.0306 4.03333,-0.0111 6.65,-2.55278 6.69722,-6.59444 0.0944,-7.93889 0.1,-15.88055 0.15556,-23.82222 0.006,-0.45278 -0.11111,-0.94444 0.34444,-1.55556" />
  <path
     id="svg_212"
     fill="#fdfef9"
     d="m 162.66058,58.279991 h -0.008 c 0,-3.23056 -0.0361,-6.46389 0.0222,-9.69444 0.0194,-1.06111 -0.28333,-1.45 -1.38889,-1.42222 -2.81944,0.07222 -5.64167,0.06389 -8.46111,0.01944 -0.94444,-0.01667 -1.34722,0.19444 -1.34167,1.25 0.0444,6.46111 0.0417,12.92222 0.008,19.38611 -0.006,0.90556 0.24167,1.24167 1.175,1.22778 2.87778,-0.05 5.75833,-0.05833 8.63611,-0.01667 1.05,0.01667 1.41389,-0.30556 1.38611,-1.40833 -0.0778,-3.11389 -0.0278,-6.22778 -0.0278,-9.34167 m -12.80552,-14.47778 c 5.65,0 11.29722,0.03611 16.94444,-0.02778 1.25278,-0.01389 1.71389,0.22222 1.70278,1.61667 -0.0778,8.11944 -0.0389,16.23889 -0.05,24.35555 -0.003,1.87222 -0.53333,2.41389 -2.40278,2.41944 -10.70556,0.01667 -21.41389,0.02778 -32.11944,0.01944 -2.46111,0 -2.95,-0.57222 -2.94444,-3.01944 0.0139,-7.82222 0.0528,-15.64722 -0.0472,-23.47222 -0.0222,-1.625 0.46944,-1.94167 1.975,-1.91944 5.64722,0.08611 11.29444,0.03333 16.94167,0.03333 v -0.0056 z" />
  <path
     id="svg_213"
     fill="#fdfef9"
     d="m 147.13443,113.8341 c -5.46667,0 -10.93056,-0.0417 -16.39722,0.0306 -1.28333,0.0194 -1.56389,-0.42222 -1.51111,-1.59167 0.0528,-1.09722 -0.15,-1.91667 1.55278,-1.9 10.98889,0.0972 21.98055,0.0917 32.96944,0.0222 1.50833,-0.008 1.51944,0.65833 1.54167,1.775 0.0222,1.18333 -0.12778,1.76111 -1.58333,1.73333 -5.52222,-0.0972 -11.04722,-0.0389 -16.57222,-0.0389 v -0.0306 z" />
  <path
     id="svg_214"
     fill="#fdfef9"
     d="m 147.18393,95.882731 c 5.53056,0 11.05833,0.0417 16.58611,-0.0306 1.20833,-0.0167 1.59167,0.37222 1.46389,1.48889 -0.11111,0.96111 0.41667,2.19722 -1.39722,2.19167 -11.11667,-0.0333 -22.23611,-0.025 -33.35278,0.008 -1.99722,0.006 -0.97778,-1.44444 -1.17222,-2.27222 -0.225,-0.97778 0.11111,-1.43333 1.28611,-1.41667 5.52778,0.0667 11.05833,0.0306 16.58611,0.0306" />
  <path
     id="svg_215"
     fill="#f0d73b"
     d="m 256.48415,211.36108 c -1.88056,0 -3.76111,-0.0306 -5.64167,0.0139 -0.89722,0.0194 -1.42778,-0.16667 -1.49167,-1.21667 -0.37778,-6.26389 -1.95556,-12.25556 -4.27778,-18.06389 -0.29722,-0.74167 -0.14444,-1.13889 0.61944,-1.47778 2.58056,-1.13889 4.99722,-2.59444 7.35,-4.14722 0.62778,-0.41389 1.05833,-0.55278 1.59444,0.18056 5.01667,6.87222 8.34444,14.375 8.90556,22.98611 0.1,1.51944 -0.46389,1.80556 -1.76944,1.75 -1.76111,-0.075 -3.525,-0.0167 -5.28889,-0.0167 v -0.008 z" />
  <path
     id="svg_216"
     fill="#f0d73b"
     d="m 185.19475,211.36777 c -1.825,0 -3.65,-0.0333 -5.47222,0.0139 -0.97222,0.025 -1.4,-0.28333 -1.31667,-1.31667 0.69444,-8.59167 3.39167,-16.39722 8.96389,-23.09722 0.51667,-0.62222 0.91667,-0.89722 1.74167,-0.37778 2.18889,1.375 4.43333,2.66111 6.68333,3.93333 0.83056,0.47222 1.15278,0.88333 0.74444,1.93333 -2.21667,5.71944 -3.80833,11.60833 -4.20556,17.76111 -0.0611,0.93889 -0.44444,1.19444 -1.31389,1.175 -1.94167,-0.0444 -3.88333,-0.0139 -5.825,-0.0139 v -0.0111 z" />
  <path
     id="svg_217"
     fill="#f0d73b"
     d="m 256.7556,217.81029 c 1.70278,0 3.41389,0.10833 5.10556,-0.0306 1.63333,-0.13333 1.93333,0.64167 1.67778,1.96667 -0.675,3.49722 -1.20556,7.02222 -2.53611,10.37222 -1.52222,3.83611 -3.34167,7.49167 -5.85833,10.78333 -0.60556,0.79167 -1.06667,1.14167 -2.13889,0.50556 -2.27222,-1.33889 -4.65833,-2.48056 -7.03333,-3.63611 -0.87778,-0.43056 -1.075,-0.88889 -0.65833,-1.79167 2.46944,-5.33611 3.70833,-10.98611 4.11389,-16.825 0.0778,-1.10278 0.50833,-1.38889 1.51667,-1.36111 1.93611,0.0528 3.87222,0.0167 5.81111,0.0167" />
  <path
     id="svg_218"
     fill="#f0d73b"
     d="m 233.51018,211.40304 c -2.64167,0.003 -5.28611,-0.0583 -7.92222,0.0278 -1.26667,0.0417 -1.61667,-0.425 -1.60278,-1.62222 0.0472,-4.10833 0.0306,-8.21667 -0.008,-12.325 -0.008,-1.01944 0.14167,-1.57222 1.38889,-1.66389 4.26944,-0.31667 8.52778,-0.775 12.61111,-2.19167 0.61111,-0.21389 0.95833,-0.0639 1.2,0.58611 1.91944,5.18333 3.39167,10.46944 3.85,16.00833 0.0833,1.02222 -0.41667,1.18889 -1.24167,1.18333 -2.75833,-0.0139 -5.51667,-0.006 -8.275,-0.003" />
  <path
     id="svg_219"
     fill="#f0d73b"
     d="m 208.02004,211.37218 c -2.64444,0 -5.28889,-0.0306 -7.93056,0.0167 -1.09722,0.0194 -1.55833,-0.18889 -1.43889,-1.48056 0.49167,-5.30278 1.61111,-10.425 3.825,-15.28889 0.31667,-0.69722 0.48056,-1.43889 1.59722,-1.00278 3.65278,1.43333 7.5,1.89722 11.38889,2.03056 1.575,0.0528 2.375,0.41111 2.28333,2.31667 -0.18889,3.92778 -0.0972,7.87222 -0.0444,11.80833 0.0167,1.18611 -0.30278,1.66389 -1.57222,1.625 -2.7,-0.0861 -5.40556,-0.025 -8.10833,-0.025" />
  <path
     id="svg_220"
     fill="#f0d73b"
     d="m 185.40212,217.79104 c 1.87778,0 3.75833,0.0222 5.63611,-0.0111 0.8,-0.0139 1.10556,0.25 1.17222,1.1 0.475,6.00556 1.66944,11.84167 4.35833,17.28889 0.40556,0.81667 0.28333,1.31389 -0.575,1.61389 -2.51111,0.875 -4.72778,2.33611 -7.04444,3.58889 -0.89167,0.48056 -1.37222,0.29167 -1.91389,-0.41667 -4.97778,-6.51111 -7.72222,-13.875 -8.47222,-22.01944 -0.0944,-1.03333 0.36667,-1.18056 1.20278,-1.16667 1.87778,0.0278 3.75833,0.008 5.63611,0.008 z" />
  <path
     id="svg_221"
     fill="#f0d73b"
     d="m 233.71211,217.80223 c 2.7,0 5.40278,0.0361 8.10278,-0.0167 0.99444,-0.0194 1.35278,0.27222 1.26667,1.30278 -0.42778,5.13056 -1.59444,10.06389 -3.71667,14.76389 -0.38611,0.85556 -0.79444,1.23056 -1.875,0.93611 -4.07778,-1.10833 -8.2,-2.03889 -12.46111,-2.05278 -0.73611,0 -1.03333,-0.28056 -1.025,-1.04722 0.0417,-4.28333 0.0639,-8.56944 0.0556,-12.85556 0,-0.89444 0.425,-1.05278 1.19722,-1.04444 2.81944,0.0306 5.63611,0.0139 8.45556,0.0139" />
  <path
     id="svg_222"
     fill="#f0d73b"
     d="m 208.07973,217.80639 c 2.70278,0 5.40833,0.0444 8.10833,-0.0222 1.10556,-0.025 1.56389,0.23611 1.54444,1.45 -0.0694,4.05556 -0.0556,8.11111 -0.0111,12.16389 0.0111,0.98056 -0.3,1.275 -1.28056,1.35 -4.10556,0.31389 -8.17222,0.91389 -12.13889,2.04722 -0.92778,0.26389 -1.34167,0.0278 -1.76111,-0.82778 -2.27222,-4.64444 -3.51667,-9.55278 -4.01389,-14.68055 -0.11111,-1.16944 0.26667,-1.54722 1.44444,-1.51667 2.7,0.075 5.40556,0.025 8.10833,0.025 v 0.0111 z" />
  <path
     id="svg_223"
     fill="#f0d73b"
     d="m 224.0511,182.50967 c 0,-1.82222 0.0278,-3.64722 -0.0111,-5.46944 -0.0194,-1.02778 0.18889,-1.50556 1.27222,-0.84722 4.29722,2.60278 7.35278,6.33333 9.76944,10.65833 0.34167,0.61389 0.21111,0.96667 -0.45278,1.18889 -3.14722,1.06111 -6.38611,1.50556 -9.70278,1.48056 -0.86111,-0.008 -0.89444,-0.55833 -0.89167,-1.18889 0.008,-1.93889 0.003,-3.88056 0.003,-5.82222 h 0.0139 z" />
  <path
     id="svg_224"
     fill="#f0d73b"
     d="m 217.67851,182.78807 c 0,1.82222 -0.0306,3.64444 0.0139,5.46389 0.0194,0.86389 -0.19444,1.26389 -1.16667,1.26944 -3.08056,0.0222 -6.075,-0.45556 -9.03333,-1.275 -1.16389,-0.32222 -1.40556,-0.88889 -0.77778,-1.9 2.4,-3.88056 5.17778,-7.41111 9.16111,-9.80556 1.50833,-0.90833 1.74722,-0.77778 1.76944,0.95833 0.025,1.76389 0.006,3.525 0.006,5.28889 h 0.0278 z" />
  <path
     id="svg_225"
     fill="#f0d73b"
     d="m 223.99022,245.56331 c 0,-1.76389 0.0306,-3.53056 -0.0139,-5.29444 -0.0222,-0.89444 0.28611,-1.26667 1.21389,-1.26667 3.325,0 6.53333,0.69444 9.72222,1.54444 0.64444,0.16944 0.69167,0.48056 0.36944,1.00833 -2.37222,3.90833 -5.15,7.45833 -9.06667,9.93333 -1.86667,1.18056 -2.20556,0.93056 -2.22222,-1.33611 -0.0111,-1.53056 -0.003,-3.05833 -0.003,-4.58889" />
  <path
     id="svg_226"
     fill="#f0d73b"
     d="m 205.91737,240.88276 c 3.70278,-1.25278 7.28611,-1.44444 10.85278,-1.75833 0.68611,-0.0611 0.96111,0.225 0.95833,0.9 -0.008,4.04722 -0.006,8.09444 -0.006,12.40833 -5.59444,-2.38333 -8.80278,-6.69722 -11.80556,-11.55" />
  <path
     id="svg_227"
     fill="#f0d73b"
     d="m 232.30135,255.76771 c 2.70833,-3.04167 5.28333,-6.14722 7.46389,-9.55833 0.18889,-0.29722 0.4,-0.57778 0.59167,-0.875 1.76389,-2.75556 1.77222,-2.76944 4.65,-1.29722 0.93889,0.48056 1.83056,1.05 2.74444,1.58056 1.08333,0.62778 1.18056,1.30556 0.21111,2.17222 -4.49722,4.025 -9.63056,6.80556 -15.66111,7.97778" />
  <path
     id="svg_228"
     fill="#f0d73b"
     d="m 209.7816,255.67326 c -1.21667,0.275 -2.02222,-0.13333 -2.83333,-0.40833 -4.66111,-1.58611 -8.91667,-3.90556 -12.6,-7.19444 -1.66389,-1.48611 -1.60556,-1.775 0.38333,-2.81667 1.29722,-0.68056 2.64444,-1.26389 3.95833,-1.91667 0.80556,-0.4 1.36944,-0.33056 1.85,0.54722 2.38056,4.35278 5.50278,8.13889 9.24167,11.78889" />
  <path
     id="svg_229"
     fill="#f0d73b"
     d="m 232.43495,172.72583 c 0.50556,-0.35556 1.01111,-0.0667 1.48333,0.0833 4.68611,1.48889 9.05833,3.6 12.88889,6.71111 2.43889,1.98056 2.39167,2.13333 -0.39722,3.72778 -1.17222,0.66944 -2.39167,1.25833 -3.57778,1.90278 -0.53056,0.28889 -0.975,0.39167 -1.31944,-0.25556 -2.40556,-4.475 -5.65,-8.31389 -9.11667,-11.98056 -0.0222,-0.025 0.0222,-0.11111 0.0389,-0.18889" />
  <path
     id="svg_230"
     fill="#f0d73b"
     d="m 209.82161,173.16688 c -0.93056,0.78889 -1.93333,1.51111 -2.78333,2.38056 -2.55833,2.61944 -4.55278,5.66389 -6.33333,8.84444 -0.53611,0.96111 -1.06667,1.24722 -2.07778,0.61667 -1.39167,-0.86944 -2.85278,-1.62222 -4.28889,-2.41667 -0.74444,-0.41111 -1.11667,-0.87778 -0.34167,-1.61111 4.39444,-4.14167 9.56667,-6.83333 15.30278,-8.48056 0.175,0.22222 0.34722,0.44444 0.52222,0.66667" />
  <path
     id="svg_231"
     fill="#05080c"
     d="m 120.35864,52.305501 c -1.46944,0.01667 -2.66389,-1.09444 -2.56944,-2.48889 0.0972,-1.44167 0.91111,-2.22222 2.38333,-2.25833 1.53611,-0.03889 2.66944,0.96389 2.675,2.36944 0.003,1.36389 -1.04167,2.36111 -2.48889,2.37778" />
  <path
     id="svg_232"
     fill="#05080c"
     d="m 119.73337,109.35497 c 1.05833,0.0722 1.79722,0.64722 1.83056,1.93889 0.0361,1.31389 -0.875,2.39722 -2.05,2.33889 -1.41944,-0.0694 -2.1,-0.975 -2.10556,-2.3 -0.006,-1.35833 0.85833,-1.95278 2.325,-1.97778" />
  <path
     id="svg_233"
     fill="#05080c"
     d="m 173.08505,111.29495 c 0.2,-1.23611 0.94444,-1.91667 2.25,-1.86667 1.22222,0.05 1.98333,0.63056 1.9,1.96667 -0.0833,1.35278 -0.76389,2.29444 -2.15556,2.20833 -1.24444,-0.075 -1.92778,-0.96111 -1.99444,-2.30833" />
  <path
     id="svg_234"
     fill="#05080c"
     d="m 162.66058,58.279991 c 0,3.11389 -0.05,6.22778 0.0278,9.34167 0.0278,1.10278 -0.33611,1.425 -1.38611,1.40833 -2.87778,-0.04167 -5.75833,-0.03333 -8.63611,0.01667 -0.93333,0.01389 -1.18056,-0.32222 -1.175,-1.22778 0.0333,-6.46389 0.0361,-12.925 -0.008,-19.38611 -0.006,-1.05556 0.39722,-1.26667 1.34167,-1.25 2.81944,0.04444 5.64167,0.05278 8.46111,-0.01944 1.10556,-0.02778 1.40833,0.36111 1.38889,1.42222 -0.0583,3.23056 -0.0222,6.46389 -0.0222,9.69444 h 0.008 z" />
  <path
     id="svg_235"
     fill="#fdca28"
     d="m 70.745208,314.30415 h 14.45833 v 5.81667 h -8.53889 v 4.12222 h 7.29722 v 5.81667 h -7.29722 v 4.68611 h 8.88056 v 5.81944 h -14.8 z" />
  <path
     id="svg_236"
     fill="#fdca28"
     d="m 89.885518,314.30496 h 5.91942 v 26.26114 h -5.91942 z" />
  <path
     id="svg_237"
     fill="#fdca28"
     d="m 108.1628,329.93855 3.99167,-4.60556 7.26389,15.23055 h -6.60833 l -4.64722,-10.625 z m 0.65278,-3.675 c 2.34167,0 3.58056,-1.21389 3.58056,-3.475 0,-2.26389 -1.23889,-2.98889 -3.58056,-2.98889 h -2.13333 v 6.46389 z m -8.05278,-11.95833 h 8.46667 c 4.81944,0 8.95,1.93889 8.95,8.48333 0,6.34167 -4.13056,8.96944 -8.95,8.96944 h -2.54722 v 8.80556 h -5.91944 v -26.25833 z" />
  <path
     id="svg_238"
     fill="#fdca28"
     d="m 130.77802,335.23134 c 2.34167,0 3.44167,-0.96944 3.44167,-2.90833 0,-1.93889 -1.1,-2.66667 -3.44167,-2.66667 h -2.40833 v 5.575 z m -0.41389,-10.66667 c 1.92778,0 2.82222,-1.05 2.82222,-2.66389 0,-1.61667 -0.89444,-2.26389 -2.82222,-2.26389 h -1.99444 v 4.92778 z m -7.91667,-10.26111 h 8.05556 c 4.68056,0 8.46667,1.375 8.46667,6.54444 0,2.26389 -1.1,4.85 -2.82222,5.65556 v 0.16389 c 2.13333,0.725 3.85556,2.66667 3.85556,6.13889 0,5.41389 -3.99167,7.75833 -8.81111,7.75833 h -8.74444 v -26.26111 z" />
  <path
     id="svg_239"
     fill="#05080c"
     d="m 141.03719,314.30415 h 6.05833 l 1.23889,11.475 c 0.24167,2.74444 0.51667,5.49167 0.75833,8.23889 h 0.13611 c 0.41389,-2.74722 0.82778,-5.53333 1.23889,-8.23889 l 2.13611,-11.475 h 4.95556 l 2.13333,11.475 c 0.41389,2.625 0.82778,5.45278 1.23889,8.23889 h 0.13889 c 0.24167,-2.78611 0.51667,-5.575 0.75556,-8.23889 l 1.24167,-11.475 h 5.64444 l -3.71667,26.26111 h -7.50556 l -1.71944,-10.425 c -0.34444,-2.01944 -0.61944,-4.2 -0.82778,-6.13889 h -0.13611 c -0.24167,1.93889 -0.48333,4.11944 -0.82778,6.13889 l -1.65278,10.425 h -7.36389 l -3.925,-26.26111 z" />
  <path
     id="svg_240"
     fill="#05080c"
     d="m 173.59941,329.61607 h 10.94722 v 5.37222 h -10.94722 z m 1.92778,-15.31111 h 7.16111 l 6.81389,26.25833 h -6.26389 l -2.54722,-12.76667 c -0.55,-2.50278 -1.1,-5.69444 -1.65278,-8.32222 h -0.13611 c -0.48333,2.66667 -1.03333,5.81944 -1.58333,8.32222 l -2.54722,12.76667 h -6.05833 l 6.81389,-26.25833 z" />
  <path
     id="svg_241"
     fill="#05080c"
     d="m 198.69524,329.93855 3.99167,-4.60556 7.26389,15.23055 h -6.60833 l -4.64722,-10.625 z m 0.65278,-3.675 c 2.34167,0 3.58056,-1.21389 3.58056,-3.475 0,-2.26389 -1.23889,-2.98889 -3.58056,-2.98889 h -2.13333 v 6.46389 z m -8.05278,-11.95833 h 8.46667 c 4.81944,0 8.95,1.93889 8.95,8.48333 0,6.34167 -4.13056,8.96944 -8.95,8.96944 h -2.54722 v 8.80556 h -5.91944 v -26.25833 z" />
  <path
     id="svg_242"
     fill="#05080c"
     d="m 212.98085,314.30415 h 14.45833 v 5.81667 h -8.53889 v 4.12222 h 7.29722 v 5.81667 h -7.29722 v 4.68611 h 8.88056 v 5.81944 h -14.8 z" />
</svg>
