<svg viewBox="0 0 256 256" xmlns="http://www.w3.org/2000/svg"><path d="m88 134.87236 136.11223-98.30328.00168-.00367a7.87244 7.87244 0 0 0 -6.22314-.15014l-184.55684 72.50448a8 8 0 0 0 1.35629 15.29065z" opacity=".2"/><path d="m132.90708 174.39059-31.25023 31.25023a8 8 0 0 1 -13.65685-5.65682v-65.1116z" opacity=".2"/><path d="m231.25586 31.73635a15.9634 15.9634 0 0 0 -16.29-2.76758l-184.55717 72.50488a15.99988 15.99988 0 0 0 2.7124 30.58106l46.87891 9.37598v58.55371a15.99415 15.99415 0 0 0 27.31348 11.31347l25.94336-25.94287 39.376 34.65088a15.86863 15.86863 0 0 0 10.51709 4.00293 16.15674 16.15674 0 0 0 4.96338-.78711 15.86491 15.86491 0 0 0 10.68457-11.65332l37.61374-164.13281a15.96073 15.96073 0 0 0 -5.15576-15.69922zm-145.10938 94.60644-49.88574-9.977 139.68164-54.87553zm9.85352 73.63379v-47.40771l25.21973 22.1936zm87.20215 8.01758-82.39209-72.50586 118.64453-85.687z"/></svg>