<?xml version="1.0" standalone="no"?>
<!DOCTYPE svg PUBLIC "-//W3C//DTD SVG 20010904//EN"
 "http://www.w3.org/TR/2001/REC-SVG-20010904/DTD/svg10.dtd">
<svg version="1.0" xmlns="http://www.w3.org/2000/svg"
 width="700.000000pt" height="700.000000pt" viewBox="0 0 700.000000 700.000000"
 preserveAspectRatio="xMidYMid meet">
<metadata>
Created by potrace 1.14, written by Peter Selinger 2001-2017
</metadata>
<g transform="translate(0.000000,700.000000) scale(0.100000,-0.100000)"
fill="#000000" stroke="none">
<path d="M3418 6986 c-20 -7 -153 -78 -295 -156 -374 -207 -391 -217 -508
-280 -33 -18 -73 -41 -90 -50 -16 -10 -57 -32 -90 -50 -33 -18 -119 -66 -192
-106 -73 -41 -134 -74 -136 -74 -11 0 -226 -125 -244 -142 -13 -12 -33 -42
-45 -66 l-21 -45 0 -931 c1 -679 4 -943 12 -974 17 -61 70 -109 197 -177 60
-32 219 -119 354 -193 135 -75 263 -146 285 -158 22 -12 72 -39 110 -61 675
-380 714 -397 809 -372 22 6 91 38 151 71 61 34 135 74 165 91 30 16 114 62
185 102 121 68 530 293 690 380 39 21 120 66 180 99 61 34 123 68 139 76 37
19 92 74 114 114 16 28 17 109 19 981 3 921 2 951 -17 993 -10 23 -32 53 -47
67 -24 20 -159 98 -433 248 -30 17 -71 39 -90 50 -43 24 -124 69 -210 115 -36
19 -69 38 -75 42 -5 4 -59 34 -120 67 -60 33 -141 77 -180 98 -38 21 -74 41
-80 45 -5 4 -41 24 -80 44 -38 21 -97 53 -130 71 -153 88 -246 111 -327 81z"/>
<path d="M1615 3865 c-23 -6 -70 -28 -105 -47 -36 -20 -98 -55 -139 -77 -41
-23 -75 -41 -78 -41 -2 0 -20 -10 -41 -23 -20 -13 -62 -37 -92 -54 -30 -16
-224 -123 -430 -238 -426 -236 -427 -236 -535 -296 -102 -57 -157 -112 -179
-181 -15 -48 -16 -137 -14 -988 l3 -935 22 -40 c25 -48 64 -85 118 -116 204
-114 824 -459 875 -487 36 -19 70 -38 75 -42 6 -4 51 -29 100 -55 50 -27 107
-59 127 -72 21 -13 40 -23 42 -23 2 0 42 -22 88 -48 154 -89 176 -97 253 -96
80 1 136 19 232 73 86 48 87 49 583 324 228 126 433 240 455 252 22 12 87 48
145 80 150 83 222 132 246 168 48 74 47 54 47 1042 0 917 0 931 -20 977 -22
48 -75 106 -121 129 -15 8 -90 49 -166 92 -77 42 -141 77 -142 77 -2 0 -25 13
-51 29 -27 15 -77 44 -113 63 -112 60 -182 98 -297 164 -62 35 -115 64 -117
64 -2 0 -61 33 -132 73 -142 81 -212 119 -324 180 -41 22 -79 43 -85 47 -43
31 -166 44 -230 25z"/>
<path d="M5211 3859 c-29 -10 -59 -23 -65 -27 -6 -5 -36 -23 -66 -39 -30 -17
-75 -41 -100 -55 -55 -31 -1023 -568 -1100 -611 -30 -17 -75 -41 -100 -55
-121 -65 -163 -106 -188 -182 -9 -26 -11 -288 -9 -970 l2 -935 21 -40 c40 -75
72 -98 279 -210 39 -20 113 -61 165 -90 122 -67 199 -109 280 -153 36 -19 91
-50 123 -68 32 -19 60 -34 61 -34 2 0 55 -29 117 -63 63 -35 143 -80 179 -99
36 -20 85 -47 110 -60 288 -159 308 -168 381 -168 83 0 87 2 684 338 347 196
369 208 441 248 342 192 481 274 510 303 67 67 65 33 62 1077 l-3 939 -27 45
c-26 45 -57 73 -120 108 -18 11 -195 111 -393 222 -198 112 -376 212 -395 223
-19 11 -84 48 -145 82 -60 34 -177 100 -260 147 -236 134 -251 141 -325 143
-42 1 -85 -5 -119 -16z"/>
</g>
</svg>
